<?xml version="1.0" encoding="UTF-8"?><svg xmlns="http://www.w3.org/2000/svg" width="100%" height="100%"><defs><font id="web" horiz-adv-x="1298"><!--



NOTICE: This font software is the valuable property 
of Webtype LLC, The Font Bureau, Webtype and/or its 
suppliers and its use by you is covered under the terms 
of the Web Font license agreement between you and Webtype 
LLC. You may ONLY use this font software with the licensed 
web site. Except as specifically permitted by the license, 
you may not copy this font software. If you have any 
questions, please contact Webtype.com. 

For more information, please visit http://www.webtype.com/store/license/?id=23

Licensed to: ford.com.ve|social.ford.com|cmax.localhost|ford.stage.rehabstudio.com|cmax.dev.rehabstudio.com|kamloopsford.strathcom2.com

Serial number: SH-527
--><font-face font-family="" units-per-em="2048" panose-1="2 0 5 3 0 0 0 2 0 4" ascent="2220" descent="-766" alphabetic="0"/><missing-glyph horiz-adv-x="1024" d="M0 1434H1024V0H0V1434ZM102 102H922V1331H102V102Z"/><glyph unicode=" " horiz-adv-x="481"/><glyph unicode="!" horiz-adv-x="733" d="M264 225H469V0H264V225ZM281 1518H453L434 418H299L281 1518Z"/><glyph unicode="&quot;" horiz-adv-x="981" d="M201 1518H360L348 932H215L201 1518ZM621 1518H780L768 932H633L621 1518Z"/><glyph unicode="#" horiz-adv-x="1507" d="M381 455H135V596H408L469 918H135V1061H498L586 1518H735L645 1061H975L1065 1518H1212L1126 1061H1374V918H1098L1036 596H1374V455H1010L922 0H772L860 455H532L444 0H293L381 455ZM895 590L961 926H612L547 590H895Z"/><glyph unicode="$" horiz-adv-x="1360" d="M541 6Q472 12 403 28T267 73T133 147L209 264Q271 223 329 198T445 158T560 138Q591 135 623 134V735Q556 749 493 766Q408 789 343 831T238 943T199 1124Q199 1329 316 1424Q417 1507 616 1518V1651H760V1517Q850 1511 932 1491Q1049 1463 1130 1407L1055 1286Q1021 1309 978 1326T887 1356T786 1374Q770 1376 754 1377V850Q836 831 911 809Q999 784 1065 739T1171 621T1210 434Q1210 328 1179 247T1083 111T918 28Q848 8 760 2V-193H616V1Q578 3 541 6ZM854 151Q927 170 972 206T1039 298T1061 426Q1061 503 1035 552T960 633T837 685Q798 696 754 707V135Q810 140 854 151ZM524 1364Q461 1348 422 1317T367 1238T350 1130Q350 1061 376 1017T450 943T569 893Q595 886 623 879V1378Q567 1374 524 1364Z"/><glyph unicode="%" horiz-adv-x="2271" d="M500 582Q389 582 312 617T185 715T113 867T90 1061Q90 1166 112 1254T184 1406T311 1506T500 1542Q608 1542 685 1506T810 1407T882 1255T905 1061Q905 955 882 867T811 716T685 617T500 582ZM500 709Q575 709 625 735T707 809T751 921T764 1061Q764 1136 751 1200T707 1311T626 1384T500 1411Q424 1411 373 1385T290 1313T246 1202T233 1061Q233 986 246 922T289 810T371 736T500 709ZM1772 -20Q1663 -20 1586 15T1460 113T1389 265T1366 459Q1366 564 1388 652T1460 804T1586 904T1772 940Q1881 940 1958 904T2084 805T2156 653T2179 459Q2179 353 2156 265T2084 114T1958 15T1772 -20ZM1772 106Q1848 106 1898 133T1979 207T2023 319T2036 459Q2036 533 2023 597T1980 708T1899 782T1772 809Q1697 809 1646 783T1564 709T1520 598T1507 459Q1507 384 1520 319T1564 207T1646 133T1772 106ZM1483 1520H1630L784 0H637L1483 1520Z"/><glyph unicode="&amp;" horiz-adv-x="1614" d="M600 -20Q460 -20 364 5T209 83T123 214T96 403Q96 495 126 567T207 697T323 800Q370 832 419 861Q390 931 371 1000Q338 1118 338 1223Q338 1306 360 1366T425 1465T527 1523T662 1542Q813 1542 888 1466T963 1223Q963 1138 929 1074T840 959T715 865Q664 834 611 803Q665 702 735 605Q810 503 897 420Q967 353 1027 306Q1099 401 1150 543Q1202 687 1251 879L1386 846Q1350 705 1312 586T1226 370Q1187 291 1141 228Q1191 199 1235 181Q1304 154 1360 148T1468 141H1491V0H1464Q1386 0 1312 10T1157 54Q1100 78 1038 117Q1013 96 986 79Q911 30 816 5T600 -20ZM780 328Q684 422 603 534Q530 635 475 741Q441 718 409 693Q362 657 326 614T269 519T248 406Q248 337 261 283T312 190T420 132T600 111Q749 111 851 159Q888 177 922 201Q856 254 780 328ZM634 966Q689 1001 731 1040T798 1123T823 1223Q823 1315 788 1360T662 1405Q572 1405 530 1361T487 1223Q487 1134 518 1028Q535 974 557 919Q597 942 634 966Z"/><glyph unicode="'" horiz-adv-x="563" d="M201 1520H360L348 932H215L201 1520Z"/><glyph unicode="(" horiz-adv-x="977" d="M672 -377Q623 -336 571 -281T471 -155T379 -2T303 178T252 383T233 614Q233 731 252 839T303 1044T378 1227T470 1385T571 1515T672 1614L782 1530Q715 1468 646 1381T520 1180T427 925T391 614Q391 444 428 303T522 48T649 -150T782 -293L672 -377Z"/><glyph unicode=")" horiz-adv-x="977" d="M195 -293Q261 -232 330 -146T455 52T548 304T584 614Q584 783 547 926T453 1184T328 1387T195 1530L303 1614Q377 1552 454 1457T596 1236T700 953T741 614Q741 439 701 286T596 5T455 -219T303 -377L195 -293Z"/><glyph unicode="*" horiz-adv-x="1178" d="M541 940L203 735L139 848L487 1032L139 1221L203 1333L541 1124L526 1520H651L637 1124L975 1333L1038 1221L690 1032L1038 848L975 735L637 942L651 549H526L541 940Z"/><glyph unicode="+" horiz-adv-x="1425" d="M635 649H217V797H635V1212H788V797H1206V649H788V231H635V649Z"/><glyph unicode="," horiz-adv-x="489" d="M131 -160Q165 -142 186 -126T221 -93T239 -53T244 0H141V227H346V55Q346 -9 339 -53T313 -132T261 -192T176 -244L131 -160Z"/><glyph unicode="-" horiz-adv-x="926" d="M106 702H817V557H106V702Z"/><glyph unicode="." horiz-adv-x="489" d="M141 227H346V0H141V227Z"/><glyph unicode="/" horiz-adv-x="1012" d="M850 1518H1012L162 0H0L850 1518Z"/><glyph unicode="0" horiz-adv-x="1493" d="M748 -23Q629 -23 539 3T384 78T277 197T209 354T174 543T164 760Q164 933 188 1076T276 1323T455 1484T748 1542Q866 1542 954 1516T1108 1442T1215 1324T1283 1168T1318 978T1329 760Q1329 646 1319 544T1283 354T1216 197T1108 79T955 4T748 -23ZM748 121Q838 121 905 143T1019 206T1095 304T1142 433T1165 586T1171 760Q1171 897 1156 1013T1096 1214T967 1347T748 1395Q611 1395 528 1347T399 1215T339 1014T324 760Q324 624 339 507T399 305T527 170T748 121Z"/><glyph unicode="1" horiz-adv-x="764" d="M365 1370H76V1518H518V0H365V1370Z"/><glyph unicode="2" horiz-adv-x="1206" d="M78 131L588 643Q672 727 732 791T831 914T888 1030T907 1159Q907 1221 890 1266T833 1341T733 1385T584 1399Q456 1399 351 1373T174 1309L104 1436Q151 1460 202 1480T314 1513T443 1534T596 1542Q712 1542 799 1521T944 1455T1032 1340T1061 1171Q1061 1085 1041 1014T978 872T870 729T715 565L289 137H1085V0H78V131Z"/><glyph unicode="3" horiz-adv-x="1251" d="M596 -25Q517 -25 447 -18T309 7T177 51T45 117L123 240Q184 207 241 184T355 145T470 122T590 115Q687 115 757 131T874 185T941 286T963 442Q963 520 947 579T885 678T760 738T553 758H344V897H549Q654 897 725 911T839 958T901 1040T920 1163Q920 1230 902 1275T843 1349T740 1389T588 1401Q536 1401 481 1395T371 1375T265 1341T168 1294L84 1413Q139 1447 201 1471T329 1511T463 1534T598 1542Q717 1542 805 1524T953 1463T1041 1354T1071 1188Q1071 1112 1057 1052T1017 949T956 878T877 838Q1004 810 1059 710T1114 432Q1114 301 1080 213T980 72T818 -3T596 -25Z"/><glyph unicode="4" horiz-adv-x="1366" d="M109 510L788 1518H958L281 518H865L897 1020H1012V518H1294V383H1012V0H864V383H109V510Z"/><glyph unicode="5" horiz-adv-x="1303" d="M641 -23Q554 -23 480 -12T342 18T223 63T117 117L197 242Q243 217 291 194T393 154T507 126T637 115Q723 115 798 130T929 186T1017 298T1049 483Q1049 594 1020 666T940 780T816 839T659 856Q600 856 552 852T461 838T379 814T301 780L170 819L209 1518H1096V1376H348L324 926Q376 954 470 975T692 997Q801 997 894 975T1057 895T1165 739T1204 487Q1204 331 1162 232T1044 76T866 -2T641 -23Z"/><glyph unicode="6" horiz-adv-x="1411" d="M743 -23Q596 -23 486 11T302 122T193 319T156 614Q156 774 172 903T228 1132T331 1305T490 1425T716 1495T1016 1518H1079V1376H1012Q874 1376 771 1359T593 1310T469 1233T388 1132T340 1009T315 870Q377 949 495 984T784 1020Q929 1020 1025 984T1180 882T1262 720T1286 504Q1286 382 1259 284T1169 118T1002 14T743 -23ZM745 113Q860 113 935 140T1054 218T1115 339T1133 500Q1133 588 1115 659T1051 781T932 859T745 887Q651 887 572 866T435 803T345 697T313 547Q313 424 343 341T428 207T564 135T745 113Z"/><glyph unicode="7" horiz-adv-x="1094" d="M893 1376H45V1518H1061V1393L449 0H287L893 1376Z"/><glyph unicode="8" horiz-adv-x="1423" d="M713 -27Q559 -27 450 4T272 93T171 235T139 424Q139 584 203 691T393 834Q341 850 303 881T239 955T202 1052T190 1167Q190 1252 215 1321T301 1439T462 1515T713 1542Q863 1542 963 1515T1123 1439T1208 1321T1233 1167Q1233 1106 1221 1052T1184 954T1121 879T1030 834Q1097 815 1145 779T1225 690T1271 570T1286 424Q1286 319 1253 235T1151 93T973 4T713 -27ZM713 109Q927 109 1027 190T1128 434Q1128 597 1028 679T713 762Q495 762 395 680T295 434Q295 271 395 190T713 109ZM713 893Q815 893 885 909T1000 959T1063 1040T1083 1151Q1083 1214 1064 1262T1000 1343T886 1392T713 1409Q610 1409 539 1393T424 1343T360 1262T340 1151Q340 1088 359 1040T423 959T539 910T713 893Z"/><glyph unicode="9" horiz-adv-x="1411" d="M336 137H403Q542 137 646 154T825 205T949 284T1029 386T1076 509T1100 647Q1038 569 921 534T633 498Q488 498 392 534T237 638T155 801T131 1014Q131 1135 158 1232T248 1399T415 1505T674 1542Q821 1542 931 1508T1114 1397T1225 1200T1262 905Q1262 745 1246 616T1190 387T1087 213T927 93T701 23T401 0H336V137ZM670 627Q765 627 844 648T981 711T1070 817T1102 967Q1102 1090 1073 1173T988 1306T853 1379T674 1401Q559 1401 484 1374T364 1296T301 1174T283 1014Q283 925 301 854T365 732T484 655T670 627Z"/><glyph unicode=":" horiz-adv-x="530" d="M162 223H367V0H162V223ZM162 1130H367V907H162V1130Z"/><glyph unicode=";" horiz-adv-x="530" d="M152 -160Q186 -142 207 -126T241 -93T259 -53T264 0H162V223H367V55Q367 -9 360 -53T334 -132T282 -192T197 -244L152 -160ZM162 1130H367V907H162V1130Z"/><glyph unicode="&lt;" horiz-adv-x="1425" d="M213 649V768L1130 1227V1081L371 709L1130 336V186L213 649Z"/><glyph unicode="=" horiz-adv-x="1425" d="M229 573H1196V428H229V573ZM229 1014H1196V870H229V1014Z"/><glyph unicode="&gt;" horiz-adv-x="1425" d="M295 336L1055 707L295 1079V1227L1212 766V647L295 186V336Z"/><glyph unicode="?" horiz-adv-x="1360" d="M561 403Q551 504 556 575T586 699T659 795T786 883Q857 923 904 953T979 1014T1020 1081T1032 1169Q1032 1221 1020 1263T971 1335T866 1381T686 1397Q564 1397 450 1369T242 1290L174 1425Q224 1453 286 1474T416 1511T555 1534T696 1542Q841 1542 936 1519T1088 1451T1167 1339T1190 1182Q1190 1105 1171 1049T1116 949T1026 868T905 793Q836 754 795 721T734 647T711 549T715 403H561ZM535 209H739V0H535V209Z"/><glyph unicode="@" horiz-adv-x="2222" d="M1124 -338Q884 -338 708 -279T415 -101T243 192T186 598Q186 1067 420 1305T1110 1544Q1570 1544 1805 1306T2040 598Q2040 449 2025 348T1971 184T1866 95T1698 68Q1612 68 1561 84T1483 125T1447 181T1436 240Q1411 198 1376 167T1292 116T1179 86T1032 76Q912 76 828 113T692 220T616 388T592 608Q592 728 616 826T694 993T832 1101T1038 1139Q1119 1139 1181 1130T1289 1103T1366 1055T1419 983L1452 1130L1552 1124V344Q1552 310 1557 278T1580 220T1632 178T1724 162Q1793 162 1835 185T1901 259T1931 394T1939 598Q1939 1017 1735 1231T1110 1446Q697 1446 492 1232T287 598Q287 393 338 237T492 -26T753 -186T1124 -240Q1296 -240 1439 -207T1692 -121L1735 -207Q1616 -267 1464 -302T1124 -338ZM1059 201Q1146 201 1212 221T1322 289T1389 415T1411 608Q1411 722 1390 798T1324 919T1214 984T1059 1004Q970 1004 909 977T809 899T753 775T735 608Q735 513 752 438T808 310T908 229T1059 201Z"/><glyph unicode="A" horiz-adv-x="1481" d="M659 1528H821L1430 0H1266L1126 350H348L211 0H51L659 1528ZM1069 498L737 1333L403 498H1069Z"/><glyph unicode="B" horiz-adv-x="1440" d="M178 1518H838Q1088 1518 1204 1426T1321 1149Q1321 1084 1308 1027T1268 925T1202 847T1112 799Q1237 768 1297 675T1358 420Q1358 305 1324 225T1223 95T1055 23T821 0H178V1518ZM838 145Q930 145 997 161T1109 213T1174 302T1196 434Q1196 579 1109 646T834 713H336V145H838ZM842 860Q936 860 997 880T1093 937T1143 1022T1157 1128Q1157 1187 1140 1232T1084 1308T986 1354T842 1370H336V860H842Z"/><glyph unicode="C" horiz-adv-x="1477" d="M838 -23Q647 -23 506 27T273 175T135 420T90 760Q90 959 140 1106T287 1350T525 1494T846 1542Q1008 1542 1142 1495T1376 1352L1262 1237Q1180 1311 1075 1350T844 1389Q551 1389 402 1231T252 758Q252 603 287 485T396 288T582 169T846 129Q931 129 996 141T1111 175T1201 225T1274 285L1386 176Q1347 138 1298 102T1184 38T1034 -6T838 -23Z"/><glyph unicode="D" horiz-adv-x="1540" d="M178 1518H674Q887 1518 1035 1482T1276 1359T1410 1126T1452 760Q1452 545 1407 399T1264 165T1014 38T647 0H178V1518ZM653 147Q833 147 955 179T1151 284T1258 474T1290 760Q1290 875 1278 964T1238 1121T1164 1235T1049 1311T889 1353T676 1366H340V147H653Z"/><glyph unicode="E" horiz-adv-x="1309" d="M178 1518H1182V1364H340V862H1161V711H340V147H1190V0H178V1518Z"/><glyph unicode="F" horiz-adv-x="1229" d="M178 1518H1155V1364H340V850H1137V698H340V0H178V1518Z"/><glyph unicode="G" horiz-adv-x="1591" d="M836 -23Q634 -23 492 26T261 174T131 419T90 760Q90 965 139 1113T285 1356T521 1496T844 1542Q953 1542 1039 1526T1192 1484T1310 1423T1397 1354L1282 1237Q1246 1268 1204 1296T1108 1344T990 1377T844 1389Q548 1389 399 1235T250 758Q250 597 282 477T385 278T568 160T842 121Q995 121 1091 153T1243 250T1318 409T1339 631V680H827V829H1499V657Q1499 554 1489 464T1451 298T1377 163T1256 62T1079 -1T836 -23Z"/><glyph unicode="H" horiz-adv-x="1591" d="M178 1518H340V870H1251V1518H1411V0H1251V713H340V0H178V1518Z"/><glyph unicode="I" horiz-adv-x="547" d="M195 1518H352V0H195V1518Z"/><glyph unicode="J" horiz-adv-x="819" d="M215 -2H132Q116 -2 100 -2T61 0V147H199Q280 147 335 164T426 216T476 305T492 434V1518H649V428Q649 311 622 230T540 97T404 22T215 -2Z"/><glyph unicode="K" horiz-adv-x="1442" d="M178 1518H336V680L1104 1518H1290L745 921L1364 0H1182L639 805L336 473V0H178V1518Z"/><glyph unicode="L" horiz-adv-x="1202" d="M178 1518H340V147H1147V0H178V1518Z"/><glyph unicode="M" horiz-adv-x="1872" d="M178 1518H387L936 223L1489 1518H1694V0H1536V1249L1001 0H866L332 1249V0H178V1518Z"/><glyph unicode="N" horiz-adv-x="1595" d="M178 1518H354L1262 266V1518H1417V0H1270L334 1288V0H178V1518Z"/><glyph unicode="O" horiz-adv-x="1708" d="M852 -25Q670 -25 529 21T290 164T141 408T90 760Q90 962 141 1109T289 1353T528 1495T852 1542Q1035 1542 1177 1496T1418 1353T1567 1110T1618 760Q1618 556 1567 408T1418 164T1178 22T852 -25ZM852 125Q1007 125 1121 166T1309 287T1420 485T1456 758Q1456 911 1420 1029T1310 1227T1121 1348T852 1389Q697 1389 584 1348T398 1227T288 1029T252 758Q252 603 288 485T397 287T584 166T852 125Z"/><glyph unicode="P" horiz-adv-x="1446" d="M178 1518H844Q1108 1518 1232 1408T1356 1065Q1356 947 1326 857T1232 707T1072 615T842 584H336V0H178V1518ZM846 733Q930 733 995 750T1105 806T1173 907T1196 1059Q1196 1148 1174 1207T1106 1302T995 1353T840 1368H336V733H846Z"/><glyph unicode="Q" horiz-adv-x="1708" d="M1104 -373Q985 -373 909 -353T789 -287T733 -166Q721 -101 727 -9Q614 1 520 30Q378 75 282 169T138 410T90 760Q90 962 138 1109T282 1353T520 1495T852 1542Q1042 1542 1185 1496T1425 1353T1569 1110T1618 760Q1618 556 1570 410T1425 170T1185 30Q1054 -10 885 -14Q882 -70 886 -108Q891 -155 914 -182T983 -220T1104 -231H1262V-371Q1256 -371 1235 -371T1190 -372T1141 -372T1104 -373ZM852 125Q1013 125 1127 166T1315 287T1422 485T1456 758Q1456 911 1422 1029T1315 1227T1128 1348T852 1389Q691 1389 578 1348T392 1227T286 1029T252 758Q252 603 285 485T391 287T577 166T852 125Z"/><glyph unicode="R" horiz-adv-x="1470" d="M178 1518H834Q1098 1518 1222 1409T1346 1073Q1346 849 1220 733Q1126 647 956 625L1323 0H1151L789 618H336V0H178V1518ZM836 766Q917 766 981 780T1091 828T1160 920T1184 1067Q1184 1155 1161 1213T1092 1306T980 1354T829 1368H336V766H836Z"/><glyph unicode="S" horiz-adv-x="1440" d="M713 -20Q540 -20 384 19T84 154L166 276Q234 233 302 204T437 157T572 131T709 123Q826 123 911 140T1052 193T1134 285T1161 420Q1161 501 1129 550T1037 629T895 678T709 715Q627 729 555 744T421 781T312 831T230 902T178 1001T160 1135Q160 1244 195 1321T299 1448T471 1519T709 1542Q887 1542 1016 1505T1237 1407L1151 1276Q1110 1303 1060 1325T954 1362T835 1386T709 1395Q607 1395 533 1381T412 1335T342 1255T319 1139Q319 1067 348 1021T432 946T566 897T748 860Q872 838 977 813T1158 743T1276 623T1319 426Q1319 200 1171 90T713 -20Z"/><glyph unicode="T" horiz-adv-x="1409" d="M625 1364H55V1518H1356V1364H786V0H625V1364Z"/><glyph unicode="U" horiz-adv-x="1593" d="M795 -25Q660 -25 562 -4T393 56T280 148T211 265T177 400T168 547V1518H330V565Q330 468 349 388T419 249T560 158T795 125Q940 125 1032 157T1177 247T1250 386T1270 565V1518H1425V547Q1425 472 1416 400T1381 265T1311 148T1197 57T1028 -3T795 -25Z"/><glyph unicode="V" horiz-adv-x="1481" d="M55 1518H221L743 193L1262 1518H1427L821 -10H659L55 1518Z"/><glyph unicode="W" horiz-adv-x="2218" d="M72 1518H238L637 262L1044 1518H1184L1589 262L1991 1518H2146L1659 -10H1520L1110 1253L702 -10H561L72 1518Z"/><glyph unicode="X" horiz-adv-x="1452" d="M131 1518H307L731 913L1147 1518H1325L815 793L1372 0H1192L720 675L258 0H82L637 794L131 1518Z"/><glyph unicode="Y" horiz-adv-x="1434" d="M27 1518H203L719 735L1239 1518H1405L797 594V0H637V589L27 1518Z"/><glyph unicode="Z" horiz-adv-x="1362" d="M92 129L1042 1364H127V1518H1241V1378L295 147H1264V0H92V129Z"/><glyph unicode="[" horiz-adv-x="946" d="M252 1589H739V1448H410V-201H745V-338H252V1589Z"/><glyph unicode="\" horiz-adv-x="1012" d="M0 1518H162L1012 0H850L0 1518Z"/><glyph unicode="]" horiz-adv-x="946" d="M205 -201H537V1448H201V1589H692V-338H205V-201Z"/><glyph unicode="^" horiz-adv-x="1208" d="M516 1808H690L1001 1488H846L600 1707L358 1488H205L516 1808Z"/><glyph unicode="_" horiz-adv-x="928" d="M-76 -121H1004V-248H-76V-121Z"/><glyph unicode="`" horiz-adv-x="1208" d="M262 1569H453L762 1249H614L262 1569Z"/><glyph unicode="a" horiz-adv-x="1270" d="M487 -20Q368 -20 291 5T170 76T108 182T90 315Q90 436 127 516T251 645T484 713T844 733H911Q909 794 902 841Q893 900 862 938T770 994T606 1012Q552 1012 503 1004T411 981T331 949T268 913L186 1034Q214 1053 258 1074T359 1114T481 1145T618 1157Q761 1157 848 1131T982 1050T1045 908T1061 700V274Q1061 229 1064 202T1078 161T1113 142T1178 137V2Q1170 -1 1155 -1T1116 -2Q1067 -2 1035 6T982 31T950 74T932 139Q906 99 869 70T779 20T654 -10T487 -20ZM636 587Q543 582 475 571T362 539T289 490T251 420T240 326Q240 275 253 236T297 169T380 127T510 113Q617 113 693 136T817 208T888 332T911 510V592H852Q729 592 636 587Z"/><glyph unicode="b" horiz-adv-x="1325" d="M733 -20Q639 -20 569 -12T447 16T359 63T295 133L266 -6L156 4V1589H311V1001Q335 1042 371 1071T460 1120T582 1148T741 1157Q882 1157 975 1115T1124 995T1202 809T1225 567Q1225 434 1202 326T1122 141T971 22T733 -20ZM711 119Q815 119 884 149T993 237T1050 376T1067 561Q1067 666 1051 749T995 890T886 979T711 1010Q604 1010 528 987T404 912T334 773T311 561Q311 436 333 351T403 215T527 141T711 119Z"/><glyph unicode="c" horiz-adv-x="1153" d="M641 -20Q483 -20 379 21T212 139T125 324T100 567Q100 702 125 811T212 997T380 1115T645 1157Q721 1157 783 1144T894 1109T983 1058T1053 995L940 889Q919 910 892 931T829 969T748 997T645 1008Q534 1008 459 979T339 892T275 752T256 563Q256 459 274 377T337 237T457 150T645 119Q693 119 734 126T812 149T882 186T948 238L1053 139Q1011 101 968 71T875 21T769 -9T641 -20Z"/><glyph unicode="d" horiz-adv-x="1325" d="M586 -20Q445 -20 351 22T202 142T123 328T100 571Q100 703 123 811T203 995T353 1113T590 1155Q682 1155 751 1146T872 1119T957 1072T1014 1004V1589H1169V6L1049 -4L1030 141Q1003 99 966 69T875 19T751 -10T586 -20ZM614 123Q721 123 797 146T921 221T991 359T1014 571Q1014 695 993 779T923 915T799 988T614 1010Q509 1010 440 980T331 894T274 756T258 571Q258 467 274 384T330 243T440 154T614 123Z"/><glyph unicode="e" horiz-adv-x="1214" d="M643 -23Q529 -23 445 -2T300 57T201 148T140 267T109 409T100 567Q100 690 122 797T204 985T368 1111T637 1157Q751 1157 830 1133T961 1064T1042 960T1084 828T1100 676T1102 514H250Q253 444 264 382Q278 300 320 240T440 147T643 113Q713 113 766 121T861 145T939 182T1008 227L1092 119Q1050 87 1004 61T903 16T785 -13T643 -23ZM954 655Q951 705 947 751T932 838T901 912T846 968T759 1005T633 1018Q511 1018 436 985T320 891T264 746Q257 703 253 655H954Z"/><glyph unicode="f" horiz-adv-x="786" d="M63 1130H276V1235Q276 1313 291 1378T344 1490T447 1563T612 1589H735V1452H629Q569 1452 531 1436T470 1390T439 1322T430 1235V1130H735V989H430V0H276V989H63V1130Z"/><glyph unicode="g" horiz-adv-x="1223" d="M590 414Q478 414 394 433Q383 420 374 405Q358 377 358 348Q358 321 369 304T407 278T480 266T596 262Q749 262 853 250T1021 205T1113 116T1141 -27Q1141 -114 1112 -178T1018 -284T846 -346T584 -367Q448 -367 349 -355T186 -311T92 -224T61 -84Q61 -35 71 10T106 92T175 157T285 197Q250 212 232 247T213 330Q213 387 239 437Q251 462 267 482Q252 491 238 502Q182 547 155 615T127 778Q127 873 154 944T237 1062T380 1133T590 1157Q645 1157 699 1152L1094 1198V1069H904Q924 1058 942 1046Q980 1019 1005 982T1044 894T1057 778Q1057 590 944 502T590 414ZM590 549Q674 549 733 562T830 603T885 674T903 778Q903 900 824 956T590 1012Q506 1012 447 998T351 956T296 883T279 778Q279 718 296 675T350 604T447 563T590 549ZM588 -238Q708 -238 785 -225T906 -187T966 -124T983 -37Q983 14 963 46T897 96T775 120T588 127Q466 127 393 112T280 72T229 12T217 -61Q217 -113 239 -147T306 -201T422 -230T588 -238Z"/><glyph unicode="h" horiz-adv-x="1270" d="M156 1589H311V1018Q327 1046 356 1071T433 1116T549 1146T713 1157Q849 1157 930 1124T1053 1029T1107 881T1120 690V0H965V664Q965 739 958 801T921 909T832 979T668 1004Q555 1004 485 977T377 900T325 783T311 635V0H156V1589Z"/><glyph unicode="i" horiz-adv-x="487" d="M166 1130H319V0H166V1130ZM166 1501H322V1280H166V1501Z"/><glyph unicode="j" horiz-adv-x="487" d="M4 -213H16Q64 -212 93 -204T139 -175T160 -122T166 -37V1130H319V-37Q319 -123 308 -181T264 -275T176 -326T31 -342H4V-213ZM166 1501H322V1280H166V1501Z"/><glyph unicode="k" horiz-adv-x="1110" d="M156 1589H309V508L854 1130H1026L617 657L1069 0H897L515 546L309 313V0H156V1589Z"/><glyph unicode="l" horiz-adv-x="598" d="M401 -2Q332 -2 287 13T215 62T177 146T166 270V1589H319V287Q319 245 323 217T341 171T381 145T451 137H500V2Q487 0 460 -1T401 -2Z"/><glyph unicode="m" horiz-adv-x="2034" d="M156 1122L279 1130L293 1012Q309 1041 339 1067T417 1114T535 1145T700 1157Q794 1157 856 1146T958 1114T1019 1066T1051 1004Q1070 1037 1104 1065T1192 1113T1318 1145T1489 1157Q1625 1157 1704 1124T1824 1029T1875 881T1886 690V0H1731V664Q1731 739 1725 801T1692 909T1606 979T1444 1004Q1331 1004 1263 977T1158 900T1110 783T1098 635V0H944V664Q944 739 939 801T905 909T820 979T657 1004Q544 1004 476 977T371 900T323 783T311 635V0H156V1122Z"/><glyph unicode="n" horiz-adv-x="1270" d="M156 1122L279 1130L293 1012Q311 1041 342 1067T423 1114T544 1145T713 1157Q849 1157 930 1124T1053 1029T1107 881T1120 690V0H965V664Q965 739 958 801T921 909T832 979T668 1004Q555 1004 485 977T377 900T325 783T311 635V0H156V1122Z"/><glyph unicode="o" horiz-adv-x="1292" d="M645 -23Q498 -23 395 14T226 126T130 310T100 567Q100 713 130 823T225 1008T394 1119T645 1157Q792 1157 895 1120T1065 1008T1161 824T1192 567Q1192 421 1162 311T1065 126T896 15T645 -23ZM645 119Q752 119 826 147T946 232T1013 372T1034 563Q1034 672 1014 755T947 895T826 981T645 1010Q538 1010 464 981T344 896T277 756T256 563Q256 455 276 372T343 233T464 148T645 119Z"/><glyph unicode="p" horiz-adv-x="1325" d="M156 1122L279 1130L293 995Q316 1036 352 1066T443 1117T570 1147T741 1157Q882 1157 975 1115T1124 996T1202 810T1225 567Q1225 435 1202 327T1123 143T973 24T735 -18Q643 -18 574 -9T453 18T368 65T311 133V-338H156V1122ZM711 123Q815 123 884 153T993 239T1050 377T1067 563Q1067 667 1051 750T995 890T886 979T711 1010Q604 1010 528 988T404 913T334 775T311 563Q311 438 333 354T403 218T527 145T711 123Z"/><glyph unicode="q" horiz-adv-x="1325" d="M1014 131Q985 90 948 62T860 15T742 -11T586 -20Q445 -20 351 22T202 141T123 327T100 569Q100 702 123 810T203 996T353 1115T590 1157Q684 1157 755 1149T878 1122T967 1075T1030 1006L1059 1149L1169 1139V-338H1014V131ZM614 123Q721 123 797 146T921 221T991 359T1014 569Q1014 694 993 778T923 914T799 988T614 1010Q509 1010 440 980T331 894T274 755T258 569Q258 465 274 383T330 243T440 154T614 123Z"/><glyph unicode="r" horiz-adv-x="735" d="M156 1122L279 1130L295 979Q311 1012 345 1042T428 1094T543 1130T686 1145V989Q582 989 511 961T395 883T331 763T311 610V0H156V1122Z"/><glyph unicode="s" horiz-adv-x="1069" d="M532 -20Q476 -20 417 -15T298 5T179 44T61 106L143 227Q193 195 244 174T347 139T447 121T541 115Q617 115 673 123T767 154T822 215T840 313Q840 361 824 391T772 442T679 477T541 508Q443 527 364 548T230 606T145 699T115 848Q115 921 137 978T211 1075T343 1136T541 1157Q669 1157 772 1131T954 1059L881 932Q816 967 731 990T543 1014Q463 1014 410 1003T326 970T281 917T268 848Q268 801 284 770T334 718T421 683T549 653Q652 632 733 612T872 556T959 466T989 319Q989 222 962 157T878 53T736 -3T532 -20Z"/><glyph unicode="t" horiz-adv-x="831" d="M63 1130H270L297 1470L420 1493V1130H731V989H420V309Q420 270 424 238T446 184T498 149T592 137H731V0Q725 -1 702 -1T652 -2H567Q472 -2 413 17T322 73T278 164T266 291V989H63V1130Z"/><glyph unicode="u" horiz-adv-x="1257" d="M633 -20Q523 -20 445 -5T313 39T227 110T178 205T156 324T150 465V1130H303V461Q303 414 304 371T315 290T344 221T400 168T493 133T633 121Q715 121 771 133T862 167T917 221T945 292T955 375T956 469V1130H1108V471Q1108 394 1103 328T1082 208T1034 111T950 39T820 -5T633 -20Z"/><glyph unicode="v" horiz-adv-x="1112" d="M23 1130H186L557 174L930 1130H1090L639 -10H473L23 1130Z"/><glyph unicode="w" horiz-adv-x="1794" d="M31 1130H193L518 215L823 1130H977L1280 217L1606 1130H1763L1356 -10H1202L897 897L592 -10H438L31 1130Z"/><glyph unicode="x" horiz-adv-x="1108" d="M78 1130H248L559 700L864 1130H1032L640 588L1067 0H893L547 479L209 0H41L467 591L78 1130Z"/><glyph unicode="y" horiz-adv-x="1085" d="M23 1130H186L547 191L903 1130H1063L575 -113Q552 -173 525 -216T460 -288T373 -329T258 -342H210Q195 -342 181 -342T160 -340V-213H248Q287 -213 315 -207T363 -188T398 -152T424 -96L464 8L23 1130Z"/><glyph unicode="z" horiz-adv-x="1028" d="M68 117L743 989H102V1130H942V1012L266 133H965V0H68V117Z"/><glyph unicode="{" horiz-adv-x="1022" d="M664 -338Q568 -338 502 -322T395 -272T335 -189T317 -72Q317 -40 325 3T346 96T373 196T400 294T421 381T430 449Q430 483 416 504T371 537T289 553T168 557V692Q235 692 284 695T365 711T414 745T430 805Q430 832 422 871T401 958T374 1055T347 1155T326 1247T317 1323Q317 1390 335 1440T394 1523T502 1572T664 1589H821V1448H692Q627 1448 585 1439T519 1410T485 1359T475 1286Q475 1261 483 1223T503 1138T529 1042T556 944T576 854T584 780Q584 721 556 683T469 627Q531 607 557 569T584 471Q584 440 576 398T556 307T530 209T503 112T483 27T475 -37Q475 -80 484 -111T518 -162T585 -191T692 -201H821V-338H664Z"/><glyph unicode="|" horiz-adv-x="664" d="M252 1589H410V-338H252V1589Z"/><glyph unicode="}" horiz-adv-x="1022" d="M201 -201H332Q397 -201 439 -192T505 -162T538 -111T547 -37Q547 -12 539 27T519 112T493 208T466 307T446 397T438 471Q438 590 553 627Q491 645 465 684T438 780Q438 811 446 853T466 944T492 1042T519 1138T539 1222T547 1286Q547 1328 538 1359T505 1409T439 1438T332 1448H201V1589H358Q455 1589 521 1573T629 1523T688 1440T707 1323Q707 1291 699 1248T677 1155T650 1056T622 958T601 871T592 805Q592 770 606 749T652 715T733 699T854 694V559Q787 559 738 556T657 541T608 508T592 449Q592 422 600 382T622 294T649 196T677 96T698 4T707 -72Q707 -139 689 -189T629 -272T522 -321T358 -338H201V-201Z"/><glyph unicode="~" horiz-adv-x="1208" d="M211 945Q236 976 266 1004T328 1052T393 1085T461 1097Q513 1097 549 1082T617 1048T677 1014T745 998Q765 998 785 1007T826 1031T866 1067T905 1109L999 1033Q973 1001 944 971T883 918T817 881T748 867Q702 867 666 883T597 917T532 952T463 968Q426 968 385 941T309 869L211 945Z"/><glyph unicode=" " horiz-adv-x="481"/><glyph unicode="¡" horiz-adv-x="733" d="M299 1100H436L453 0H281L299 1100ZM264 1518H471V1292H264V1518Z"/><glyph unicode="¢" horiz-adv-x="1143" d="M565 1278H713V1150Q750 1147 783 1140Q844 1128 893 1107T980 1056T1049 995L938 891Q918 912 892 933T830 971T749 999Q727 1004 702 1007V118Q719 120 736 123Q777 131 813 146T882 184T948 236L1049 139Q1007 101 965 73T874 24T768 -6Q742 -10 713 -13V-193H565V-13Q457 -5 379 25Q276 66 214 142T127 325T102 567Q102 701 127 809T214 993T381 1111Q458 1142 565 1150V1278ZM459 980Q384 950 339 893T274 752T254 563Q254 459 273 376T337 235T457 146Q506 125 573 118V1006Q508 999 459 980Z"/><glyph unicode="£" horiz-adv-x="1251" d="M72 852H271Q266 874 261 895Q245 965 234 1030T223 1151Q223 1239 246 1311T321 1435T457 1515T666 1544Q784 1544 879 1525T1065 1466L1004 1331Q928 1366 842 1381T664 1397Q581 1397 526 1378T437 1325T391 1242T377 1133Q377 1084 387 1024T412 898L422 852H893V721H455Q466 672 477 625Q492 557 502 494T512 375Q512 284 496 214L494 206Q541 184 597 166T716 135T844 123Q903 123 938 135T993 172T1019 236T1026 330V379H1165V326Q1165 234 1150 170T1099 64T1001 3T846 -16Q768 -16 694 -2T553 35T432 86Q429 88 426 89Q381 47 304 24Q221 0 88 0V135Q185 135 241 148T326 191T361 265T369 373Q369 424 358 486T331 616Q319 667 305 721H72V852Z"/><glyph unicode="¤" horiz-adv-x="1152" d="M1056 392L940 284L740 500Q668 452 572 452Q480 452 408 500L208 284L92 392L300 608Q272 648 262 686T252 780Q252 828 262 870T300 952L92 1168L208 1276L408 1060Q480 1108 572 1108Q668 1108 740 1060L944 1276L1060 1156L852 952Q880 912 890 872T900 780Q900 684 848 608L1056 392ZM748 780Q748 860 698 910T572 960Q496 960 448 910T400 780Q400 700 450 652T572 604Q652 604 700 652T748 780Z"/><glyph unicode="¥" horiz-adv-x="1280" d="M135 309H563V481H135V618H563V653L33 1518H197L641 788L1083 1518H1247L717 656V618H1147V481H717V309H1147V172H717V0H563V172H135V309Z"/><glyph unicode="¦" horiz-adv-x="664" d="M252 465H410V-338H252V465ZM252 1589H410V786H252V1589Z"/><glyph unicode="§" horiz-adv-x="1114" d="M459 1180Q459 1253 469 1317T514 1430T615 1506T795 1534H863Q882 1534 898 1534T920 1532V1397H811Q743 1397 703 1381T643 1335T618 1267T612 1182V1060Q790 1051 889 990Q1004 919 1004 762Q1004 684 975 628T890 536T749 483Q701 474 645 470V336Q645 263 635 199T590 86T488 10T307 -18Q295 -18 277 -18T240 -17T206 -17T184 -16V115H293Q360 115 399 131T458 177T483 246T489 332V468Q319 478 224 536Q111 605 111 762Q111 919 224 990Q310 1044 459 1057V1180ZM555 578Q713 578 792 620T872 760Q872 857 793 897T555 938Q397 938 320 898T242 760Q242 662 320 620T555 578Z"/><glyph unicode="¨" horiz-adv-x="1208" d="M317 1462H461V1253H317V1462ZM750 1462H891V1253H750V1462Z"/><glyph unicode="©" horiz-adv-x="1704" d="M864 240Q617 240 489 373T360 768Q360 901 396 1000T498 1163T658 1260T868 1292Q972 1292 1064 1260T1225 1165L1147 1085Q1093 1133 1020 1159T866 1186Q774 1186 701 1160T578 1081T500 950T473 768Q473 560 574 454T868 348Q923 348 966 356T1045 378T1107 411T1157 451L1231 375Q1204 349 1170 325T1092 281T991 251T864 240ZM848 -25Q657 -25 515 33T279 195T137 443T90 760Q90 933 137 1077T278 1325T515 1486T848 1544Q1039 1544 1182 1487T1420 1325T1562 1077T1610 760Q1610 587 1563 443T1420 195T1182 33T848 -25ZM848 51Q1025 51 1154 103T1367 248T1493 472T1534 760Q1534 917 1493 1047T1368 1270T1154 1416T848 1468Q672 1468 544 1416T333 1271T209 1047T168 760Q168 603 208 473T332 249T544 103T848 51Z"/><glyph unicode="ª" horiz-adv-x="1206" d="M453 584Q365 584 304 604T205 660T150 748T133 862Q133 959 169 1023T281 1126T473 1180T748 1196H795Q793 1248 787 1286Q779 1333 754 1362T682 1405T557 1419Q515 1419 476 1412T401 1393T338 1368T289 1341L217 1444Q240 1459 276 1476T358 1507T457 1531T567 1540Q682 1540 752 1520T860 1455T911 1340T924 1171V831Q924 793 926 771T939 738T968 723T1020 719V600Q1012 600 1002 599T973 598Q928 598 898 603T849 625T820 672T807 752Q786 709 757 678T685 625T585 594T453 584ZM522 1080Q427 1070 369 1045T286 977T260 870Q260 789 311 744T479 698Q638 698 716 775T795 1020V1090H756Q617 1090 522 1080ZM219 428H928V307H219V428Z"/><glyph unicode="«" horiz-adv-x="1386" d="M195 563L504 1130H643L344 563L643 0H504L195 563ZM692 563L1001 1130H1143L842 563L1143 0H1001L692 563Z"/><glyph unicode="¬" horiz-adv-x="1536" d="M1116 352V728H212V920H1296V352H1116Z"/><glyph unicode="­" horiz-adv-x="926" d="M106 702H817V557H106V702Z"/><glyph unicode="®" horiz-adv-x="1704" d="M848 -25Q657 -25 515 33T279 195T137 443T90 760Q90 933 137 1077T278 1325T515 1486T848 1544Q1039 1544 1182 1487T1420 1325T1562 1077T1610 760Q1610 587 1563 443T1420 195T1182 33T848 -25ZM848 51Q1025 51 1154 103T1367 248T1493 472T1534 760Q1534 917 1493 1047T1368 1270T1154 1416T848 1468Q672 1468 544 1416T333 1271T209 1047T168 760Q168 603 208 473T332 249T544 103T848 51ZM487 1260H922Q1015 1260 1078 1242T1182 1188T1239 1096T1257 967Q1257 892 1239 837T1181 744T1077 688Q1045 679 1006 674L1255 250H1141L897 670H594V250H487V1260ZM922 766Q979 766 1021 775T1093 808T1136 870T1151 965Q1151 1021 1137 1058T1095 1119T1023 1151T920 1161H594V766H922Z"/><glyph unicode="¯" horiz-adv-x="1208" d="M236 1374H973V1241H236V1374Z"/><glyph unicode="°" horiz-adv-x="1165" d="M582 571Q463 571 379 607T241 707T162 861T137 1057Q137 1163 162 1252T241 1405T379 1506T582 1542Q700 1542 784 1506T923 1406T1002 1252T1028 1057Q1028 950 1003 861T923 708T785 607T582 571ZM582 696Q668 696 728 722T825 795T880 909T897 1055Q897 1134 880 1199T826 1312T728 1385T582 1411Q496 1411 436 1385T339 1312T285 1200T268 1055Q268 975 284 909T338 796T436 722T582 696Z"/><glyph unicode="±" horiz-adv-x="1425" d="M635 649H217V797H635V1212H788V797H1206V649H788V231H635V649ZM217 180H1206V35H217V180Z"/><glyph unicode="²" horiz-adv-x="903" d="M131 686L424 977Q481 1033 517 1071T575 1143T604 1208T612 1282Q612 1353 569 1387T422 1421Q347 1421 286 1407T180 1370L125 1466Q182 1495 254 1512T434 1530Q586 1530 661 1475T737 1292Q737 1237 725 1193T685 1107T616 1020T516 918L297 696H748V592H131V686Z"/><glyph unicode="³" horiz-adv-x="944" d="M457 580Q405 580 360 584T273 599T191 625T109 666L172 760Q241 720 306 703T446 686Q504 686 546 694T615 724T655 780T668 870Q668 915 658 948T622 1003T548 1036T426 1047H295V1147H422Q483 1147 525 1154T592 1177T628 1221T639 1290Q639 1364 593 1392T444 1421Q376 1421 310 1405T190 1358L129 1452Q162 1472 201 1487T283 1512T370 1527T459 1532Q540 1532 598 1520T694 1480T748 1412T766 1313Q766 1226 735 1177T635 1104Q720 1084 756 1022T793 858Q793 780 773 727T711 641T606 594T457 580Z"/><glyph unicode="´" horiz-adv-x="1208" d="M756 1569H946L594 1249H446L756 1569Z"/><glyph unicode="µ" horiz-adv-x="1266" d="M156 1130H311V461Q311 414 312 371T323 290T351 221T408 168T501 133T641 121Q723 121 778 133T870 167T925 221T952 292T962 375T963 469V1130H1116V471Q1116 394 1111 328T1090 208T1043 111T960 39T832 -5T649 -20Q576 -20 521 -13T424 9T356 43T311 90V-338H156V1130Z"/><glyph unicode="¶" horiz-adv-x="1268" d="M928 596H674V0H526V600Q445 606 382 625Q284 654 224 712T137 859T111 1065Q111 1182 137 1267T224 1408T382 1491T623 1518H1075V0H928V596ZM928 729V1374H621Q525 1374 458 1359T348 1306T286 1209T266 1059Q266 968 286 905T348 803T456 747T614 729H928Z"/><glyph unicode="·" horiz-adv-x="489" d="M141 793H346V561H141V793Z"/><glyph unicode="¸" horiz-adv-x="1208" d="M621 -461Q543 -461 486 -444T383 -401L430 -315Q470 -337 516 -349T614 -362Q666 -362 697 -353T746 -329T770 -295T776 -254Q776 -226 767 -207T736 -177T677 -163T584 -162L539 -129L567 14H668L649 -92Q695 -89 738 -92T815 -114T869 -167T889 -264Q889 -307 876 -343T831 -405T748 -446T621 -461Z"/><glyph unicode="¹" horiz-adv-x="672" d="M311 1405H127V1518H436V592H311V1405Z"/><glyph unicode="º" horiz-adv-x="1212" d="M606 590Q382 590 274 711T166 1067Q166 1302 274 1422T606 1542Q827 1542 937 1422T1047 1067Q1047 832 937 711T606 590ZM606 711Q762 711 837 801T913 1065Q913 1238 838 1326T606 1415Q449 1415 374 1326T299 1065Q299 892 374 802T606 711ZM221 428H991V305H221V428Z"/><glyph unicode="»" horiz-adv-x="1386" d="M547 565L248 1130H385L694 565L385 0H248L547 565ZM1042 565L743 1130H885L1194 565L885 0H743L1042 565Z"/><glyph unicode="¼" horiz-adv-x="1786" d="M1423 217H969V315L1382 930H1522L1112 324H1423L1446 575H1546V324H1700V217H1546V0H1423V217ZM299 1401H115V1518H428V588H299V1401ZM1208 1518H1350L504 0H362L1208 1518Z"/><glyph unicode="½" horiz-adv-x="1925" d="M1151 98L1444 387Q1501 445 1538 483T1596 554T1626 616T1634 688Q1634 759 1591 793T1444 827Q1368 827 1307 812T1202 774L1145 877Q1203 904 1276 922T1456 940Q1608 940 1682 885T1757 700Q1757 645 1745 602T1707 517T1639 430T1538 326L1323 109H1755V0H1151V98ZM299 1401H115V1518H428V588H299V1401ZM1208 1518H1350L504 0H362L1208 1518Z"/><glyph unicode="¾" horiz-adv-x="1978" d="M426 586Q375 586 330 590T243 605T161 633T78 674L145 772Q216 732 279 715T416 698Q473 698 514 705T583 733T622 789T635 879Q635 923 625 955T589 1009T516 1040T395 1051H266V1159H391Q453 1159 495 1165T562 1188T599 1230T610 1298Q610 1335 599 1360T563 1400T502 1421T414 1427Q346 1427 280 1411T162 1362L98 1460Q164 1502 251 1522T428 1542Q509 1542 567 1530T663 1490T717 1421T735 1321Q735 1234 703 1186T602 1112Q684 1092 723 1031T762 866Q762 787 742 734T680 647T575 600T426 586ZM1616 217H1163V315L1575 930H1716L1305 324H1618L1640 575H1741V324H1892V217H1741V0H1616V217ZM1403 1518H1544L696 0H557L1403 1518Z"/><glyph unicode="¿" horiz-adv-x="1360" d="M662 -14Q516 -14 421 9T270 78T191 191T168 348Q168 424 187 480T242 580T331 660T453 735Q523 774 564 807T625 881T647 980T643 1124H797Q807 1023 803 953T774 829T699 733T571 645Q501 606 455 576T380 514T340 447T328 358Q328 307 339 265T387 194T492 149T672 133Q794 133 908 160T1116 238L1184 102Q1134 75 1072 54T942 17T803 -6T662 -14ZM618 1528H823V1319H618V1528Z"/><glyph unicode="À" horiz-adv-x="1487" d="M659 1528H821L1430 0H1266L1126 350H348L211 0H51L659 1528ZM1069 498L737 1333L403 498H1069ZM397 1927H588L897 1607H749L397 1927Z"/><glyph unicode="Á" horiz-adv-x="1487" d="M659 1528H821L1430 0H1266L1126 350H348L211 0H51L659 1528ZM1069 498L737 1333L403 498H1069ZM891 1927H1081L729 1607H581L891 1927Z"/><glyph unicode="Â" horiz-adv-x="1487" d="M659 1528H821L1430 0H1266L1126 350H348L211 0H51L659 1528ZM1069 498L737 1333L403 498H1069ZM651 1927H825L1136 1607H981L735 1826L493 1607H340L651 1927Z"/><glyph unicode="Ã" horiz-adv-x="1487" d="M659 1528H821L1430 0H1266L1126 350H348L211 0H51L659 1528ZM1069 498L737 1333L403 498H1069ZM346 1689Q371 1720 401 1748T463 1796T528 1829T596 1841Q648 1841 684 1826T752 1792T812 1758T880 1742Q900 1742 920 1751T961 1775T1001 1811T1040 1853L1134 1777Q1108 1745 1079 1715T1018 1662T952 1625T883 1611Q837 1611 801 1627T732 1661T667 1696T598 1712Q561 1712 520 1685T444 1613L346 1689Z"/><glyph unicode="Ä" horiz-adv-x="1487" d="M659 1528H821L1430 0H1266L1126 350H348L211 0H51L659 1528ZM1069 498L737 1333L403 498H1069ZM452 1820H596V1611H452V1820ZM885 1820H1026V1611H885V1820Z"/><glyph unicode="Å" horiz-adv-x="1487" d="M627 1442Q559 1470 529 1530T498 1671Q498 1723 512 1768T555 1848T630 1901T741 1921Q803 1921 849 1902T926 1848T972 1769T987 1671Q987 1593 955 1532T856 1442L1432 0H1270L1130 348H348L213 0H53L627 1442ZM1073 496L739 1333L406 496H1073ZM741 1511Q782 1511 811 1523T859 1556T886 1607T895 1671Q895 1705 887 1734T859 1784T811 1818T741 1831Q700 1831 672 1819T624 1785T597 1734T588 1671Q588 1636 596 1607T624 1557T671 1523T741 1511Z"/><glyph unicode="Æ" horiz-adv-x="2191" d="M995 1518H2066V1364H1223V862H2046V715H1223V147H2075V0H1069V344H420L201 0H41L995 1518ZM1069 483V1372L502 483H1069Z"/><glyph unicode="Ç" horiz-adv-x="1477" d="M752 -461Q674 -461 617 -444T514 -401L561 -315Q601 -337 647 -349T745 -362Q797 -362 828 -353T877 -329T901 -295T907 -254Q907 -226 898 -207T867 -177T808 -163T715 -162L670 -129L698 14H799L780 -92Q826 -89 869 -92T946 -114T1000 -167T1020 -264Q1020 -307 1007 -343T962 -405T879 -446T752 -461ZM838 -23Q647 -23 506 27T273 175T135 420T90 760Q90 959 140 1106T287 1350T525 1494T846 1542Q1008 1542 1142 1495T1376 1352L1262 1237Q1180 1311 1075 1350T844 1389Q551 1389 402 1231T252 758Q252 603 287 485T396 288T582 169T846 129Q931 129 996 141T1111 175T1201 225T1274 285L1386 176Q1347 138 1298 102T1184 38T1034 -6T838 -23Z"/><glyph unicode="È" horiz-adv-x="1309" d="M178 1518H1182V1364H340V862H1161V711H340V147H1190V0H178V1518ZM309 1927H500L809 1607H661L309 1927Z"/><glyph unicode="É" horiz-adv-x="1309" d="M803 1927H993L641 1607H493L803 1927ZM178 1518H1182V1364H340V862H1161V711H340V147H1190V0H178V1518Z"/><glyph unicode="Ê" horiz-adv-x="1309" d="M563 1927H737L1048 1607H893L647 1826L405 1607H252L563 1927ZM178 1518H1182V1364H340V862H1161V711H340V147H1190V0H178V1518Z"/><glyph unicode="Ë" horiz-adv-x="1309" d="M364 1820H508V1611H364V1820ZM797 1820H938V1611H797V1820ZM178 1518H1182V1364H340V862H1161V711H340V147H1190V0H178V1518Z"/><glyph unicode="Ì" horiz-adv-x="547" d="M-111 1927H84L352 1608H203L-111 1927ZM195 1518H352V0H195V1518Z"/><glyph unicode="Í" horiz-adv-x="547" d="M461 1927H655L344 1608H195L461 1927ZM195 1518H352V0H195V1518Z"/><glyph unicode="Î" horiz-adv-x="547" d="M188 1927H356L618 1608H465L270 1831L76 1608H-76L188 1927ZM195 1518H352V0H195V1518Z"/><glyph unicode="Ï" horiz-adv-x="547" d="M195 1518H352V0H195V1518ZM-12 1820H132V1611H-12V1820ZM421 1820H562V1611H421V1820Z"/><glyph unicode="Ð" horiz-adv-x="1540" d="M0 854H178V1518H674Q887 1518 1035 1482T1276 1359T1410 1126T1452 760Q1452 545 1406 399T1261 165T1011 38T647 0H178V719H0V854ZM653 147Q833 147 955 179T1151 284T1258 474T1290 760Q1290 875 1278 964T1238 1121T1164 1235T1049 1311T889 1353T676 1366H340V854H684V719H340V147H653Z"/><glyph unicode="Ñ" horiz-adv-x="1595" d="M178 1518H354L1262 266V1518H1417V0H1270L334 1288V0H178V1518ZM401 1689Q426 1720 456 1748T518 1796T583 1829T651 1841Q703 1841 739 1826T807 1792T867 1758T935 1742Q955 1742 975 1751T1016 1775T1056 1811T1095 1853L1189 1777Q1163 1745 1134 1715T1073 1662T1007 1625T938 1611Q892 1611 856 1627T787 1661T722 1696T653 1712Q616 1712 575 1685T499 1613L401 1689Z"/><glyph unicode="Ò" horiz-adv-x="1708" d="M852 -25Q670 -25 529 21T290 164T141 408T90 760Q90 962 141 1109T289 1353T528 1495T852 1542Q1035 1542 1177 1496T1418 1353T1567 1110T1618 760Q1618 556 1567 408T1418 164T1178 22T852 -25ZM852 125Q1007 125 1121 166T1309 287T1420 485T1456 758Q1456 911 1420 1029T1310 1227T1121 1348T852 1389Q697 1389 584 1348T398 1227T288 1029T252 758Q252 603 288 485T397 287T584 166T852 125ZM510 1927H701L1010 1607H862L510 1927Z"/><glyph unicode="Ó" horiz-adv-x="1708" d="M1004 1927H1194L842 1607H694L1004 1927ZM852 -25Q670 -25 529 21T290 164T141 408T90 760Q90 962 141 1109T289 1353T528 1495T852 1542Q1035 1542 1177 1496T1418 1353T1567 1110T1618 760Q1618 556 1567 408T1418 164T1178 22T852 -25ZM852 125Q1007 125 1121 166T1309 287T1420 485T1456 758Q1456 911 1420 1029T1310 1227T1121 1348T852 1389Q697 1389 584 1348T398 1227T288 1029T252 758Q252 603 288 485T397 287T584 166T852 125Z"/><glyph unicode="Ô" horiz-adv-x="1708" d="M764 1927H938L1249 1607H1094L848 1826L606 1607H453L764 1927ZM852 -25Q670 -25 529 21T290 164T141 408T90 760Q90 962 141 1109T289 1353T528 1495T852 1542Q1035 1542 1177 1496T1418 1353T1567 1110T1618 760Q1618 556 1567 408T1418 164T1178 22T852 -25ZM852 125Q1007 125 1121 166T1309 287T1420 485T1456 758Q1456 911 1420 1029T1310 1227T1121 1348T852 1389Q697 1389 584 1348T398 1227T288 1029T252 758Q252 603 288 485T397 287T584 166T852 125Z"/><glyph unicode="Õ" horiz-adv-x="1708" d="M852 -25Q670 -25 529 21T290 164T141 408T90 760Q90 962 141 1109T289 1353T528 1495T852 1542Q1035 1542 1177 1496T1418 1353T1567 1110T1618 760Q1618 556 1567 408T1418 164T1178 22T852 -25ZM852 125Q1007 125 1121 166T1309 287T1420 485T1456 758Q1456 911 1420 1029T1310 1227T1121 1348T852 1389Q697 1389 584 1348T398 1227T288 1029T252 758Q252 603 288 485T397 287T584 166T852 125ZM459 1689Q484 1720 514 1748T576 1796T641 1829T709 1841Q761 1841 797 1826T865 1792T925 1758T993 1742Q1013 1742 1033 1751T1074 1775T1114 1811T1153 1853L1247 1777Q1221 1745 1192 1715T1131 1662T1065 1625T996 1611Q950 1611 914 1627T845 1661T780 1696T711 1712Q674 1712 633 1685T557 1613L459 1689Z"/><glyph unicode="Ö" horiz-adv-x="1708" d="M565 1820H709V1611H565V1820ZM998 1820H1139V1611H998V1820ZM852 -25Q670 -25 529 21T290 164T141 408T90 760Q90 962 141 1109T289 1353T528 1495T852 1542Q1035 1542 1177 1496T1418 1353T1567 1110T1618 760Q1618 556 1567 408T1418 164T1178 22T852 -25ZM852 125Q1007 125 1121 166T1309 287T1420 485T1456 758Q1456 911 1420 1029T1310 1227T1121 1348T852 1389Q697 1389 584 1348T398 1227T288 1029T252 758Q252 603 288 485T397 287T584 166T852 125Z"/><glyph unicode="×" horiz-adv-x="1425" d="M291 397L616 721L291 1047L387 1147L713 821L1036 1147L1133 1047L809 721L1133 397L1036 299L713 625L385 299L291 397Z"/><glyph unicode="Ø" horiz-adv-x="1708" d="M852 -25Q663 -25 520 21Q513 24 507 26L444 -84H289L383 84Q327 118 282 164Q186 260 138 408T90 760Q90 962 138 1109T282 1353T520 1495T852 1542Q1035 1542 1175 1499L1235 1604H1391L1301 1446Q1370 1407 1425 1353Q1521 1257 1569 1110T1618 760Q1618 556 1570 408T1425 164T1186 22T852 -25ZM852 121Q1015 121 1130 162T1318 284T1426 484T1460 758Q1460 913 1426 1031T1318 1230Q1275 1277 1218 1311L576 162Q691 121 852 121ZM852 1393Q690 1393 576 1352T388 1231T282 1032T248 758Q248 603 281 484T388 284Q422 246 466 217L1105 1360Q997 1393 852 1393Z"/><glyph unicode="Ù" horiz-adv-x="1593" d="M795 -25Q660 -25 562 -4T393 56T280 148T211 265T177 400T168 547V1518H330V565Q330 468 349 388T419 249T560 158T795 125Q940 125 1032 157T1177 247T1250 386T1270 565V1518H1425V547Q1425 472 1416 400T1381 265T1311 148T1197 57T1028 -3T795 -25ZM452 1927H643L952 1607H804L452 1927Z"/><glyph unicode="Ú" horiz-adv-x="1593" d="M946 1927H1136L784 1607H636L946 1927ZM795 -25Q660 -25 562 -4T393 56T280 148T211 265T177 400T168 547V1518H330V565Q330 468 349 388T419 249T560 158T795 125Q940 125 1032 157T1177 247T1250 386T1270 565V1518H1425V547Q1425 472 1416 400T1381 265T1311 148T1197 57T1028 -3T795 -25Z"/><glyph unicode="Û" horiz-adv-x="1593" d="M706 1927H880L1191 1607H1036L790 1826L548 1607H395L706 1927ZM795 -25Q660 -25 562 -4T393 56T280 148T211 265T177 400T168 547V1518H330V565Q330 468 349 388T419 249T560 158T795 125Q940 125 1032 157T1177 247T1250 386T1270 565V1518H1425V547Q1425 472 1416 400T1381 265T1311 148T1197 57T1028 -3T795 -25Z"/><glyph unicode="Ü" horiz-adv-x="1593" d="M507 1820H651V1611H507V1820ZM940 1820H1081V1611H940V1820ZM795 -25Q660 -25 562 -4T393 56T280 148T211 265T177 400T168 547V1518H330V565Q330 468 349 388T419 249T560 158T795 125Q940 125 1032 157T1177 247T1250 386T1270 565V1518H1425V547Q1425 472 1416 400T1381 265T1311 148T1197 57T1028 -3T795 -25Z"/><glyph unicode="Ý" horiz-adv-x="1434" d="M27 1518H203L719 735L1239 1518H1405L797 594V0H637V589L27 1518ZM867 1927H1057L705 1607H557L867 1927Z"/><glyph unicode="Þ" horiz-adv-x="1446" d="M178 1518H336V1268H844Q987 1268 1085 1241T1243 1158T1329 1016T1356 813Q1356 696 1330 607T1244 457T1085 367T842 336H336V0H178V1518ZM846 483Q939 483 1005 500T1114 557T1176 658T1196 809Q1196 899 1177 959T1115 1055T1005 1107T840 1122H336V483H846Z"/><glyph unicode="ß" horiz-adv-x="1327" d="M156 1112Q156 1212 181 1300T265 1453T422 1557T664 1595Q908 1595 1021 1498T1135 1202Q1135 1125 1120 1066T1076 962T1006 888T913 840Q998 825 1061 794T1167 715T1230 598T1251 438Q1251 337 1229 256T1145 118T970 31T676 0H543V141H672Q765 141 832 151T947 181T1024 229T1070 290T1092 363T1098 446Q1098 523 1077 580T1003 675T865 731T649 750V881Q812 881 896 950T981 1167Q981 1236 963 1287T907 1373T808 1423T662 1440Q569 1440 502 1417T393 1350T330 1245T309 1106V0H156V1112Z"/><glyph unicode="à" horiz-adv-x="1270" d="M487 -20Q368 -20 291 5T170 76T108 182T90 315Q90 436 127 516T251 645T484 713T844 733H911Q909 794 902 841Q893 900 862 938T770 994T606 1012Q552 1012 503 1004T411 981T331 949T268 913L186 1034Q214 1053 258 1074T359 1114T481 1145T618 1157Q761 1157 848 1131T982 1050T1045 908T1061 700V274Q1061 229 1064 202T1078 161T1113 142T1178 137V2Q1170 -1 1155 -1T1116 -2Q1067 -2 1035 6T982 31T950 74T932 139Q906 99 869 70T779 20T654 -10T487 -20ZM636 587Q543 582 475 571T362 539T289 490T251 420T240 326Q240 275 253 236T297 169T380 127T510 113Q617 113 693 136T817 208T888 332T911 510V592H852Q729 592 636 587ZM295 1569H486L795 1249H647L295 1569Z"/><glyph unicode="á" horiz-adv-x="1270" d="M487 -20Q368 -20 291 5T170 76T108 182T90 315Q90 436 127 516T251 645T484 713T844 733H911Q909 794 902 841Q893 900 862 938T770 994T606 1012Q552 1012 503 1004T411 981T331 949T268 913L186 1034Q214 1053 258 1074T359 1114T481 1145T618 1157Q761 1157 848 1131T982 1050T1045 908T1061 700V274Q1061 229 1064 202T1078 161T1113 142T1178 137V2Q1170 -1 1155 -1T1116 -2Q1067 -2 1035 6T982 31T950 74T932 139Q906 99 869 70T779 20T654 -10T487 -20ZM636 587Q543 582 475 571T362 539T289 490T251 420T240 326Q240 275 253 236T297 169T380 127T510 113Q617 113 693 136T817 208T888 332T911 510V592H852Q729 592 636 587ZM789 1569H979L627 1249H479L789 1569Z"/><glyph unicode="â" horiz-adv-x="1270" d="M487 -20Q368 -20 291 5T170 76T108 182T90 315Q90 436 127 516T251 645T484 713T844 733H911Q909 794 902 841Q893 900 862 938T770 994T606 1012Q552 1012 503 1004T411 981T331 949T268 913L186 1034Q214 1053 258 1074T359 1114T481 1145T618 1157Q761 1157 848 1131T982 1050T1045 908T1061 700V274Q1061 229 1064 202T1078 161T1113 142T1178 137V2Q1170 -1 1155 -1T1116 -2Q1067 -2 1035 6T982 31T950 74T932 139Q906 99 869 70T779 20T654 -10T487 -20ZM636 587Q543 582 475 571T362 539T289 490T251 420T240 326Q240 275 253 236T297 169T380 127T510 113Q617 113 693 136T817 208T888 332T911 510V592H852Q729 592 636 587ZM549 1569H723L1034 1249H879L633 1468L391 1249H238L549 1569Z"/><glyph unicode="ã" horiz-adv-x="1270" d="M487 -20Q368 -20 291 5T170 76T108 182T90 315Q90 436 127 516T251 645T484 713T844 733H911Q909 794 902 841Q893 900 862 938T770 994T606 1012Q552 1012 503 1004T411 981T331 949T268 913L186 1034Q214 1053 258 1074T359 1114T481 1145T618 1157Q761 1157 848 1131T982 1050T1045 908T1061 700V274Q1061 229 1064 202T1078 161T1113 142T1178 137V2Q1170 -1 1155 -1T1116 -2Q1067 -2 1035 6T982 31T950 74T932 139Q906 99 869 70T779 20T654 -10T487 -20ZM636 587Q543 582 475 571T362 539T289 490T251 420T240 326Q240 275 253 236T297 169T380 127T510 113Q617 113 693 136T817 208T888 332T911 510V592H852Q729 592 636 587ZM244 1331Q269 1362 299 1390T361 1438T426 1471T494 1483Q546 1483 582 1468T650 1434T710 1400T778 1384Q798 1384 818 1393T859 1417T899 1453T938 1495L1032 1419Q1006 1387 977 1357T916 1304T850 1267T781 1253Q735 1253 699 1269T630 1303T565 1338T496 1354Q459 1354 418 1327T342 1255L244 1331Z"/><glyph unicode="ä" horiz-adv-x="1270" d="M487 -20Q368 -20 291 5T170 76T108 182T90 315Q90 436 127 516T251 645T484 713T844 733H911Q909 794 902 841Q893 900 862 938T770 994T606 1012Q552 1012 503 1004T411 981T331 949T268 913L186 1034Q214 1053 258 1074T359 1114T481 1145T618 1157Q761 1157 848 1131T982 1050T1045 908T1061 700V274Q1061 229 1064 202T1078 161T1113 142T1178 137V2Q1170 -1 1155 -1T1116 -2Q1067 -2 1035 6T982 31T950 74T932 139Q906 99 869 70T779 20T654 -10T487 -20ZM636 587Q543 582 475 571T362 539T289 490T251 420T240 326Q240 275 253 236T297 169T380 127T510 113Q617 113 693 136T817 208T888 332T911 510V592H852Q729 592 636 587ZM350 1462H494V1253H350V1462ZM783 1462H924V1253H783V1462Z"/><glyph unicode="å" horiz-adv-x="1270" d="M487 -20Q368 -20 291 5T170 76T108 182T90 315Q90 436 127 516T251 645T484 713T844 733H911Q909 794 902 841Q893 900 862 938T770 994T606 1012Q552 1012 503 1004T411 981T331 949T268 913L186 1034Q214 1053 258 1074T359 1114T481 1145T618 1157Q761 1157 848 1131T982 1050T1045 908T1061 700V274Q1061 229 1064 202T1078 161T1113 142T1178 137V2Q1170 -1 1155 -1T1116 -2Q1067 -2 1035 6T982 31T950 74T932 139Q906 99 869 70T779 20T654 -10T487 -20ZM636 587Q543 582 475 571T362 539T289 490T251 420T240 326Q240 275 253 236T297 169T380 127T510 113Q617 113 693 136T817 208T888 332T911 510V592H852Q729 592 636 587ZM637 1227Q572 1227 526 1246T449 1299T405 1379T391 1479Q391 1533 405 1579T449 1659T525 1713T637 1733Q698 1733 744 1714T820 1660T866 1579T881 1479Q881 1425 866 1379T821 1299T744 1246T637 1227ZM637 1319Q677 1319 706 1331T753 1365T780 1416T789 1479Q789 1513 781 1542T754 1592T706 1626T637 1638Q596 1638 567 1626T520 1593T493 1542T484 1479Q484 1445 492 1416T519 1366T567 1332T637 1319Z"/><glyph unicode="æ" horiz-adv-x="2017" d="M1448 -23Q1332 -23 1248 -2T1106 58T1010 151Q993 176 980 203Q966 176 949 152Q903 86 837 48T685 -5T489 -20Q389 -20 315 -1T190 58T115 162T90 315Q90 436 127 516T251 645T484 713T844 733H911Q909 794 902 841Q893 900 862 938T770 994T606 1012Q552 1012 502 1004T408 981T328 950T264 915L186 1034Q214 1053 258 1074T359 1114T481 1145T618 1157Q713 1157 781 1145T897 1107T972 1043Q993 1013 1007 976L1012 983Q1049 1037 1106 1076T1246 1136T1440 1157Q1556 1157 1636 1133T1768 1064T1849 960T1890 828T1904 676T1905 514H1053Q1056 444 1067 382Q1081 300 1123 240T1243 147T1448 113Q1517 113 1569 121T1664 145T1741 182T1810 227L1894 119Q1851 87 1806 61T1708 16T1591 -13T1448 -23ZM636 587Q543 582 475 571T362 539T289 490T251 420T240 326Q240 275 253 236T297 169T380 127T512 113Q618 113 693 136T817 208T888 332T911 510V592H852Q729 592 636 587ZM1757 655Q1755 705 1751 751T1736 838T1705 912T1650 968T1564 1005T1438 1018Q1316 1018 1241 985T1124 891T1067 746Q1060 703 1056 655H1757Z"/><glyph unicode="ç" horiz-adv-x="1153" d="M853 -461Q775 -461 718 -444T615 -401L662 -315Q702 -337 748 -349T846 -362Q898 -362 929 -353T978 -329T1002 -295T1008 -254Q1008 -226 999 -207T968 -177T909 -163T816 -162L771 -129L799 14H900L881 -92Q927 -89 970 -92T1047 -114T1101 -167T1121 -264Q1121 -307 1108 -343T1063 -405T980 -446T853 -461ZM641 -20Q483 -20 379 21T212 139T125 324T100 567Q100 702 125 811T212 997T380 1115T645 1157Q721 1157 783 1144T894 1109T983 1058T1053 995L940 889Q919 910 892 931T829 969T748 997T645 1008Q534 1008 459 979T339 892T275 752T256 563Q256 459 274 377T337 237T457 150T645 119Q693 119 734 126T812 149T882 186T948 238L1053 139Q1011 101 968 71T875 21T769 -9T641 -20Z"/><glyph unicode="è" horiz-adv-x="1214" d="M643 -23Q529 -23 445 -2T300 57T201 148T140 267T109 409T100 567Q100 690 122 797T204 985T368 1111T637 1157Q751 1157 830 1133T961 1064T1042 960T1084 828T1100 676T1102 514H250Q253 444 264 382Q278 300 320 240T440 147T643 113Q713 113 766 121T861 145T939 182T1008 227L1092 119Q1050 87 1004 61T903 16T785 -13T643 -23ZM954 655Q951 705 947 751T932 838T901 912T846 968T759 1005T633 1018Q511 1018 436 985T320 891T264 746Q257 703 253 655H954ZM262 1569H453L762 1249H614L262 1569Z"/><glyph unicode="é" horiz-adv-x="1214" d="M756 1569H946L594 1249H446L756 1569ZM643 -23Q529 -23 445 -2T300 57T201 148T140 267T109 409T100 567Q100 690 122 797T204 985T368 1111T637 1157Q751 1157 830 1133T961 1064T1042 960T1084 828T1100 676T1102 514H250Q253 444 264 382Q278 300 320 240T440 147T643 113Q713 113 766 121T861 145T939 182T1008 227L1092 119Q1050 87 1004 61T903 16T785 -13T643 -23ZM954 655Q951 705 947 751T932 838T901 912T846 968T759 1005T633 1018Q511 1018 436 985T320 891T264 746Q257 703 253 655H954Z"/><glyph unicode="ê" horiz-adv-x="1214" d="M516 1569H690L1001 1249H846L600 1468L358 1249H205L516 1569ZM643 -23Q529 -23 445 -2T300 57T201 148T140 267T109 409T100 567Q100 690 122 797T204 985T368 1111T637 1157Q751 1157 830 1133T961 1064T1042 960T1084 828T1100 676T1102 514H250Q253 444 264 382Q278 300 320 240T440 147T643 113Q713 113 766 121T861 145T939 182T1008 227L1092 119Q1050 87 1004 61T903 16T785 -13T643 -23ZM954 655Q951 705 947 751T932 838T901 912T846 968T759 1005T633 1018Q511 1018 436 985T320 891T264 746Q257 703 253 655H954Z"/><glyph unicode="ë" horiz-adv-x="1214" d="M317 1462H461V1253H317V1462ZM750 1462H891V1253H750V1462ZM643 -23Q529 -23 445 -2T300 57T201 148T140 267T109 409T100 567Q100 690 122 797T204 985T368 1111T637 1157Q751 1157 830 1133T961 1064T1042 960T1084 828T1100 676T1102 514H250Q253 444 264 382Q278 300 320 240T440 147T643 113Q713 113 766 121T861 145T939 182T1008 227L1092 119Q1050 87 1004 61T903 16T785 -13T643 -23ZM954 655Q951 705 947 751T932 838T901 912T846 968T759 1005T633 1018Q511 1018 436 985T320 891T264 746Q257 703 253 655H954Z"/><glyph unicode="ì" horiz-adv-x="487" d="M-102 1567H86L319 1249H174L-102 1567ZM166 1130H319V0H166V1130Z"/><glyph unicode="í" horiz-adv-x="487" d="M401 1567H592L315 1249H170L401 1567ZM166 1130H319V0H166V1130Z"/><glyph unicode="î" horiz-adv-x="487" d="M162 1567H324L565 1249H414L242 1470L66 1249H-80L162 1567ZM166 1130H319V0H166V1130Z"/><glyph unicode="ï" horiz-adv-x="487" d="M-14 1485H117V1278H-14V1485ZM371 1485H502V1278H371V1485ZM166 1130H319V0H166V1130Z"/><glyph unicode="ð" horiz-adv-x="1292" d="M616 1339L782 1385Q710 1465 616 1542L754 1608Q816 1560 872 1506Q910 1471 943 1430L1225 1509V1395L1013 1336Q1041 1293 1065 1244Q1105 1166 1133 1069T1176 852T1192 586Q1192 428 1160 314T1061 124T890 13T643 -23Q496 -23 393 15T225 126T130 306T100 551Q100 684 126 790T213 970T370 1083T608 1122Q688 1122 749 1114T857 1088T938 1046T999 989Q962 1146 867 1280Q863 1286 858 1292L616 1225V1339ZM643 119Q750 119 824 146T945 229T1013 365T1034 553Q1034 661 1013 742T946 877T825 959T643 987Q538 987 464 960T344 878T277 742T256 553Q256 446 277 365T344 229T464 147T643 119Z"/><glyph unicode="ñ" horiz-adv-x="1270" d="M156 1122L279 1130L293 1012Q311 1041 342 1067T423 1114T544 1145T713 1157Q849 1157 930 1124T1053 1029T1107 881T1120 690V0H965V664Q965 739 958 801T921 909T832 979T668 1004Q555 1004 485 977T377 900T325 783T311 635V0H156V1122ZM240 1331Q265 1362 295 1390T357 1438T422 1471T490 1483Q542 1483 578 1468T646 1434T706 1400T774 1384Q794 1384 814 1393T855 1417T895 1453T934 1495L1028 1419Q1002 1387 973 1357T912 1304T846 1267T777 1253Q731 1253 695 1269T626 1303T561 1338T492 1354Q455 1354 414 1327T338 1255L240 1331Z"/><glyph unicode="ò" horiz-adv-x="1292" d="M645 -23Q498 -23 395 14T226 126T130 310T100 567Q100 713 130 823T225 1008T394 1119T645 1157Q792 1157 895 1120T1065 1008T1161 824T1192 567Q1192 421 1162 311T1065 126T896 15T645 -23ZM645 119Q752 119 826 147T946 232T1013 372T1034 563Q1034 672 1014 755T947 895T826 981T645 1010Q538 1010 464 981T344 896T277 756T256 563Q256 455 276 372T343 233T464 148T645 119ZM301 1569H492L801 1249H653L301 1569Z"/><glyph unicode="ó" horiz-adv-x="1292" d="M795 1569H985L633 1249H485L795 1569ZM645 -23Q498 -23 395 14T226 126T130 310T100 567Q100 713 130 823T225 1008T394 1119T645 1157Q792 1157 895 1120T1065 1008T1161 824T1192 567Q1192 421 1162 311T1065 126T896 15T645 -23ZM645 119Q752 119 826 147T946 232T1013 372T1034 563Q1034 672 1014 755T947 895T826 981T645 1010Q538 1010 464 981T344 896T277 756T256 563Q256 455 276 372T343 233T464 148T645 119Z"/><glyph unicode="ô" horiz-adv-x="1292" d="M555 1569H729L1040 1249H885L639 1468L397 1249H244L555 1569ZM645 -23Q498 -23 395 14T226 126T130 310T100 567Q100 713 130 823T225 1008T394 1119T645 1157Q792 1157 895 1120T1065 1008T1161 824T1192 567Q1192 421 1162 311T1065 126T896 15T645 -23ZM645 119Q752 119 826 147T946 232T1013 372T1034 563Q1034 672 1014 755T947 895T826 981T645 1010Q538 1010 464 981T344 896T277 756T256 563Q256 455 276 372T343 233T464 148T645 119Z"/><glyph unicode="õ" horiz-adv-x="1292" d="M645 -23Q498 -23 395 14T226 126T130 310T100 567Q100 713 130 823T225 1008T394 1119T645 1157Q792 1157 895 1120T1065 1008T1161 824T1192 567Q1192 421 1162 311T1065 126T896 15T645 -23ZM645 119Q752 119 826 147T946 232T1013 372T1034 563Q1034 672 1014 755T947 895T826 981T645 1010Q538 1010 464 981T344 896T277 756T256 563Q256 455 276 372T343 233T464 148T645 119ZM250 1331Q275 1362 305 1390T367 1438T432 1471T500 1483Q552 1483 588 1468T656 1434T716 1400T784 1384Q804 1384 824 1393T865 1417T905 1453T944 1495L1038 1419Q1012 1387 983 1357T922 1304T856 1267T787 1253Q741 1253 705 1269T636 1303T571 1338T502 1354Q465 1354 424 1327T348 1255L250 1331Z"/><glyph unicode="ö" horiz-adv-x="1292" d="M356 1462H500V1253H356V1462ZM789 1462H930V1253H789V1462ZM645 -23Q498 -23 395 14T226 126T130 310T100 567Q100 713 130 823T225 1008T394 1119T645 1157Q792 1157 895 1120T1065 1008T1161 824T1192 567Q1192 421 1162 311T1065 126T896 15T645 -23ZM645 119Q752 119 826 147T946 232T1013 372T1034 563Q1034 672 1014 755T947 895T826 981T645 1010Q538 1010 464 981T344 896T277 756T256 563Q256 455 276 372T343 233T464 148T645 119Z"/><glyph unicode="÷" horiz-adv-x="1425" d="M618 412H807V221H618V412ZM217 797H1206V649H217V797ZM618 1225H807V1034H618V1225Z"/><glyph unicode="ø" horiz-adv-x="1292" d="M645 -23Q499 -23 396 13L338 -86H193L285 70Q251 95 224 126Q159 200 130 310T100 567Q100 713 129 823T224 1008T392 1119T645 1157Q792 1157 895 1120L954 1219H1098L1007 1061Q1040 1038 1066 1008Q1132 934 1162 824T1192 567Q1192 421 1162 311T1067 126T897 15T645 -23ZM645 115Q753 115 827 144T949 230T1017 370T1038 563Q1038 673 1017 757T949 897Q935 913 919 927L464 143Q539 115 645 115ZM645 1012Q537 1012 462 983T341 898T275 757T254 563Q254 454 274 371T341 230Q353 214 368 201L822 985Q749 1012 645 1012Z"/><glyph unicode="ù" horiz-adv-x="1257" d="M633 -20Q523 -20 445 -5T313 39T227 110T178 205T156 324T150 465V1130H303V461Q303 414 304 371T315 290T344 221T400 168T493 133T633 121Q715 121 771 133T862 167T917 221T945 292T955 375T956 469V1130H1108V471Q1108 394 1103 328T1082 208T1034 111T950 39T820 -5T633 -20ZM285 1569H476L785 1249H637L285 1569Z"/><glyph unicode="ú" horiz-adv-x="1257" d="M779 1569H969L617 1249H469L779 1569ZM633 -20Q523 -20 445 -5T313 39T227 110T178 205T156 324T150 465V1130H303V461Q303 414 304 371T315 290T344 221T400 168T493 133T633 121Q715 121 771 133T862 167T917 221T945 292T955 375T956 469V1130H1108V471Q1108 394 1103 328T1082 208T1034 111T950 39T820 -5T633 -20Z"/><glyph unicode="û" horiz-adv-x="1257" d="M539 1569H713L1024 1249H869L623 1468L381 1249H228L539 1569ZM633 -20Q523 -20 445 -5T313 39T227 110T178 205T156 324T150 465V1130H303V461Q303 414 304 371T315 290T344 221T400 168T493 133T633 121Q715 121 771 133T862 167T917 221T945 292T955 375T956 469V1130H1108V471Q1108 394 1103 328T1082 208T1034 111T950 39T820 -5T633 -20Z"/><glyph unicode="ü" horiz-adv-x="1257" d="M340 1462H484V1253H340V1462ZM773 1462H914V1253H773V1462ZM633 -20Q523 -20 445 -5T313 39T227 110T178 205T156 324T150 465V1130H303V461Q303 414 304 371T315 290T344 221T400 168T493 133T633 121Q715 121 771 133T862 167T917 221T945 292T955 375T956 469V1130H1108V471Q1108 394 1103 328T1082 208T1034 111T950 39T820 -5T633 -20Z"/><glyph unicode="ý" horiz-adv-x="1085" d="M23 1130H186L547 191L903 1130H1063L575 -113Q552 -173 525 -216T460 -288T373 -329T258 -342H210Q195 -342 181 -342T160 -340V-213H248Q287 -213 315 -207T363 -188T398 -152T424 -96L464 8L23 1130ZM954 1569H1144L792 1249H644L954 1569Z"/><glyph unicode="þ" horiz-adv-x="1325" d="M156 1589H311V1004Q357 1083 459 1120T741 1157Q882 1157 975 1115T1124 996T1202 810T1225 567Q1225 435 1202 327T1123 142T973 22T735 -20Q643 -20 574 -11T453 16T368 64T311 133V-338H156V1589ZM711 123Q815 123 884 153T993 239T1050 377T1067 563Q1067 667 1051 750T995 890T886 979T711 1010Q604 1010 528 988T404 913T334 775T311 563Q311 438 333 354T403 218T527 145T711 123Z"/><glyph unicode="ÿ" horiz-adv-x="1085" d="M23 1130H186L547 191L903 1130H1063L575 -113Q552 -173 525 -216T460 -288T373 -329T258 -342H210Q195 -342 181 -342T160 -340V-213H248Q287 -213 315 -207T363 -188T398 -152T424 -96L464 8L23 1130ZM515 1462H659V1253H515V1462ZM948 1462H1089V1253H948V1462Z"/><glyph unicode="Ā" horiz-adv-x="1487" d="M659 1528H821L1430 0H1266L1126 350H348L211 0H51L659 1528ZM1069 498L737 1333L403 498H1069ZM371 1732H1108V1599H371V1732Z"/><glyph unicode="ā" horiz-adv-x="1270" d="M487 -20Q368 -20 291 5T170 76T108 182T90 315Q90 436 127 516T251 645T484 713T844 733H911Q909 794 902 841Q893 900 862 938T770 994T606 1012Q552 1012 503 1004T411 981T331 949T268 913L186 1034Q214 1053 258 1074T359 1114T481 1145T618 1157Q761 1157 848 1131T982 1050T1045 908T1061 700V274Q1061 229 1064 202T1078 161T1113 142T1178 137V2Q1170 -1 1155 -1T1116 -2Q1067 -2 1035 6T982 31T950 74T932 139Q906 99 869 70T779 20T654 -10T487 -20ZM636 587Q543 582 475 571T362 539T289 490T251 420T240 326Q240 275 253 236T297 169T380 127T510 113Q617 113 693 136T817 208T888 332T911 510V592H852Q729 592 636 587ZM269 1374H1006V1241H269V1374Z"/><glyph unicode="Ă" horiz-adv-x="1487" d="M659 1528H821L1430 0H1266L1126 350H348L211 0H51L659 1528ZM1069 498L737 1333L403 498H1069ZM739 1587Q638 1587 570 1611T459 1677T392 1773T356 1890L475 1914Q484 1873 500 1837T546 1774T622 1732T739 1716Q808 1716 854 1731T930 1774T976 1837T1003 1914L1124 1892Q1110 1830 1086 1775T1019 1678T907 1612T739 1587Z"/><glyph unicode="ă" horiz-adv-x="1270" d="M487 -20Q368 -20 291 5T170 76T108 182T90 315Q90 436 127 516T251 645T484 713T844 733H911Q909 794 902 841Q893 900 862 938T770 994T606 1012Q552 1012 503 1004T411 981T331 949T268 913L186 1034Q214 1053 258 1074T359 1114T481 1145T618 1157Q761 1157 848 1131T982 1050T1045 908T1061 700V274Q1061 229 1064 202T1078 161T1113 142T1178 137V2Q1170 -1 1155 -1T1116 -2Q1067 -2 1035 6T982 31T950 74T932 139Q906 99 869 70T779 20T654 -10T487 -20ZM636 587Q543 582 475 571T362 539T289 490T251 420T240 326Q240 275 253 236T297 169T380 127T510 113Q617 113 693 136T817 208T888 332T911 510V592H852Q729 592 636 587ZM637 1229Q536 1229 468 1253T357 1319T290 1415T254 1532L373 1556Q382 1515 398 1479T444 1416T520 1374T637 1358Q706 1358 752 1373T828 1416T874 1479T901 1556L1022 1534Q1008 1472 984 1417T917 1320T805 1254T637 1229Z"/><glyph unicode="Ą" horiz-adv-x="1487" d="M659 1528H821L1430 0H1378Q1190 -110 1190 -219Q1190 -239 1194 -258T1212 -292T1249 -316T1313 -326Q1358 -326 1395 -318T1460 -299L1507 -406Q1473 -424 1417 -434T1292 -444Q1221 -444 1175 -428T1101 -384T1062 -318T1051 -236Q1051 -191 1067 -150T1111 -75T1174 -12T1249 37L1126 350H348L211 0H51L659 1528ZM1069 498L737 1333L403 498H1069Z"/><glyph unicode="ą" horiz-adv-x="1270" d="M487 -20Q368 -20 291 5T170 76T108 182T90 315Q90 436 127 516T251 645T484 713T844 733H911Q909 805 898 858T855 945T763 995T606 1012Q552 1012 503 1004T411 981T331 949T268 913L186 1034Q214 1053 258 1074T359 1114T481 1145T618 1157Q761 1157 848 1131T982 1050T1045 908T1061 700V274Q1061 229 1064 202T1078 161T1113 142T1178 137V2Q1177 2 1176 1V0Q1075 -56 1022 -109T969 -219Q969 -239 973 -258T992 -292T1033 -316T1102 -326Q1147 -326 1184 -318T1249 -299L1296 -406Q1262 -424 1207 -434T1081 -444Q1004 -444 956 -428T879 -384T840 -318T829 -236Q829 -193 846 -155T891 -86T950 -30T1012 12Q992 20 979 32T956 61Q947 77 942 96T932 139Q906 99 869 70T779 20T654 -10T487 -20ZM510 113Q617 113 693 136T817 208T888 332T911 510V592H852Q729 592 636 587T475 571T362 539T289 490T251 420T240 326Q240 275 253 236T297 169T380 127T510 113Z"/><glyph unicode="Ć" horiz-adv-x="1477" d="M889 1927H1079L727 1607H579L889 1927ZM838 -23Q647 -23 506 27T273 175T135 420T90 760Q90 959 140 1106T287 1350T525 1494T846 1542Q1008 1542 1142 1495T1376 1352L1262 1237Q1180 1311 1075 1350T844 1389Q551 1389 402 1231T252 758Q252 603 287 485T396 288T582 169T846 129Q931 129 996 141T1111 175T1201 225T1274 285L1386 176Q1347 138 1298 102T1184 38T1034 -6T838 -23Z"/><glyph unicode="ć" horiz-adv-x="1153" d="M986 1569H1176L824 1249H676L986 1569ZM641 -20Q483 -20 379 21T212 139T125 324T100 567Q100 702 125 811T212 997T380 1115T645 1157Q721 1157 783 1144T894 1109T983 1058T1053 995L940 889Q919 910 892 931T829 969T748 997T645 1008Q534 1008 459 979T339 892T275 752T256 563Q256 459 274 377T337 237T457 150T645 119Q693 119 734 126T812 149T882 186T948 238L1053 139Q1011 101 968 71T875 21T769 -9T641 -20Z"/><glyph unicode="Č" horiz-adv-x="1477" d="M338 1927H493L739 1708L983 1927H1134L823 1607H649L338 1927ZM838 -23Q647 -23 506 27T273 175T135 420T90 760Q90 959 140 1106T287 1350T525 1494T846 1542Q1008 1542 1142 1495T1376 1352L1262 1237Q1180 1311 1075 1350T844 1389Q551 1389 402 1231T252 758Q252 603 287 485T396 288T582 169T846 129Q931 129 996 141T1111 175T1201 225T1274 285L1386 176Q1347 138 1298 102T1184 38T1034 -6T838 -23Z"/><glyph unicode="č" horiz-adv-x="1153" d="M435 1569H590L836 1350L1080 1569H1231L920 1249H746L435 1569ZM641 -20Q483 -20 379 21T212 139T125 324T100 567Q100 702 125 811T212 997T380 1115T645 1157Q721 1157 783 1144T894 1109T983 1058T1053 995L940 889Q919 910 892 931T829 969T748 997T645 1008Q534 1008 459 979T339 892T275 752T256 563Q256 459 274 377T337 237T457 150T645 119Q693 119 734 126T812 149T882 186T948 238L1053 139Q1011 101 968 71T875 21T769 -9T641 -20Z"/><glyph unicode="Ď" horiz-adv-x="1540" d="M369 1927H524L770 1708L1014 1927H1165L854 1607H680L369 1927ZM178 1518H674Q887 1518 1035 1482T1276 1359T1410 1126T1452 760Q1452 545 1407 399T1264 165T1014 38T647 0H178V1518ZM653 147Q833 147 955 179T1151 284T1258 474T1290 760Q1290 875 1278 964T1238 1121T1164 1235T1049 1311T889 1353T676 1366H340V147H653Z"/><glyph unicode="ď" horiz-adv-x="1534" d="M1329 1243Q1360 1260 1380 1275T1412 1307T1429 1345T1434 1395H1348V1589H1526V1442Q1526 1384 1520 1343T1496 1272T1448 1217T1370 1169L1329 1243ZM586 -20Q445 -20 351 22T202 142T123 328T100 571Q100 703 123 811T203 995T353 1113T590 1155Q682 1155 751 1146T872 1119T957 1072T1014 1004V1589H1169V6L1049 -4L1030 141Q1003 99 966 69T875 19T751 -10T586 -20ZM614 123Q721 123 797 146T921 221T991 359T1014 571Q1014 695 993 779T923 915T799 988T614 1010Q509 1010 440 980T331 894T274 756T258 571Q258 467 274 384T330 243T440 154T614 123Z"/><glyph unicode="Đ" horiz-adv-x="1540" d="M0 854H178V1518H674Q887 1518 1035 1482T1276 1359T1410 1126T1452 760Q1452 545 1406 399T1261 165T1011 38T647 0H178V719H0V854ZM653 147Q833 147 955 179T1151 284T1258 474T1290 760Q1290 875 1278 964T1238 1121T1164 1235T1049 1311T889 1353T676 1366H340V854H684V719H340V147H653Z"/><glyph unicode="đ" horiz-adv-x="1325" d="M586 -20Q445 -20 351 22T202 142T123 328T100 571Q100 703 123 811T203 995T353 1113T590 1155Q682 1155 751 1146T872 1119T957 1072T1014 1004V1276H674V1413H1014V1589H1169V1413H1325V1276H1169V6L1049 -4L1030 141Q1003 99 966 69T875 19T751 -10T586 -20ZM614 123Q721 123 797 146T921 221T991 359T1014 571Q1014 695 993 779T923 915T799 988T614 1010Q509 1010 440 980T331 894T274 756T258 571Q258 467 274 384T330 243T440 154T614 123Z"/><glyph unicode="Ē" horiz-adv-x="1309" d="M178 1518H1182V1364H340V862H1161V711H340V147H1190V0H178V1518ZM283 1732H1020V1599H283V1732Z"/><glyph unicode="ē" horiz-adv-x="1214" d="M643 -23Q529 -23 445 -2T300 57T201 148T140 267T109 409T100 567Q100 690 122 797T204 985T368 1111T637 1157Q751 1157 830 1133T961 1064T1042 960T1084 828T1100 676T1102 514H250Q253 444 264 382Q278 300 320 240T440 147T643 113Q713 113 766 121T861 145T939 182T1008 227L1092 119Q1050 87 1004 61T903 16T785 -13T643 -23ZM954 655Q951 705 947 751T932 838T901 912T846 968T759 1005T633 1018Q511 1018 436 985T320 891T264 746Q257 703 253 655H954ZM236 1374H973V1241H236V1374Z"/><glyph unicode="Ė" horiz-adv-x="1309" d="M178 1518H1182V1364H340V862H1161V711H340V147H1190V0H178V1518ZM573 1824H729V1605H573V1824Z"/><glyph unicode="ė" horiz-adv-x="1214" d="M643 -23Q529 -23 445 -2T300 57T201 148T140 267T109 409T100 567Q100 690 122 797T204 985T368 1111T637 1157Q751 1157 830 1133T961 1064T1042 960T1084 828T1100 676T1102 514H250Q253 444 264 382Q278 300 320 240T440 147T643 113Q713 113 766 121T861 145T939 182T1008 227L1092 119Q1050 87 1004 61T903 16T785 -13T643 -23ZM954 655Q951 705 947 751T932 838T901 912T846 968T759 1005T633 1018Q511 1018 436 985T320 891T264 746Q257 703 253 655H954ZM526 1466H682V1247H526V1466Z"/><glyph unicode="Ę" horiz-adv-x="1309" d="M178 1518H1182V1364H340V862H1161V711H340V147H1190V0H1028Q941 -54 895 -111T848 -221Q848 -241 852 -260T871 -293T912 -317T981 -326Q1032 -326 1080 -314T1157 -287L1204 -393Q1161 -416 1096 -430T961 -444Q884 -444 835 -428T758 -385T720 -320T709 -240Q709 -200 724 -165T762 -99T814 -43T870 0H178V1518Z"/><glyph unicode="ę" horiz-adv-x="1214" d="M643 -23Q529 -23 445 -2T300 57T201 148T140 267T109 409T100 567Q100 690 122 797T204 985T368 1111T637 1157Q751 1157 830 1133T961 1064T1042 960T1084 828T1100 676T1102 514H250Q253 425 270 351T331 224T450 142T643 113Q713 113 766 121T861 145T939 182T1008 227L1092 119Q1048 87 1004 61T905 16H907Q807 -41 753 -103T698 -221Q698 -241 702 -260T721 -293T762 -317T831 -326Q882 -326 930 -314T1008 -287L1055 -393Q1011 -416 946 -430T811 -444Q734 -444 685 -428T608 -385T570 -320T559 -240Q559 -205 570 -174T600 -115T642 -64T690 -20Q678 -22 667 -22T643 -23ZM633 1018Q526 1018 456 992T342 918T278 803T252 655H954Q951 705 947 751T932 838T901 912T846 968T759 1005T633 1018Z"/><glyph unicode="Ě" horiz-adv-x="1309" d="M252 1927H407L653 1708L897 1927H1048L737 1607H563L252 1927ZM178 1518H1182V1364H340V862H1161V711H340V147H1190V0H178V1518Z"/><glyph unicode="ě" horiz-adv-x="1214" d="M205 1569H360L606 1350L850 1569H1001L690 1249H516L205 1569ZM643 -23Q529 -23 445 -2T300 57T201 148T140 267T109 409T100 567Q100 690 122 797T204 985T368 1111T637 1157Q751 1157 830 1133T961 1064T1042 960T1084 828T1100 676T1102 514H250Q253 444 264 382Q278 300 320 240T440 147T643 113Q713 113 766 121T861 145T939 182T1008 227L1092 119Q1050 87 1004 61T903 16T785 -13T643 -23ZM954 655Q951 705 947 751T932 838T901 912T846 968T759 1005T633 1018Q511 1018 436 985T320 891T264 746Q257 703 253 655H954Z"/><glyph unicode="Ğ" horiz-adv-x="1591" d="M836 -23Q634 -23 492 26T261 174T131 419T90 760Q90 965 139 1113T285 1356T521 1496T844 1542Q953 1542 1039 1526T1192 1484T1310 1423T1397 1354L1282 1237Q1246 1268 1204 1296T1108 1344T990 1377T844 1389Q548 1389 399 1235T250 758Q250 597 282 477T385 278T568 160T842 121Q995 121 1091 153T1243 250T1318 409T1339 631V680H827V829H1499V657Q1499 554 1489 464T1451 298T1377 163T1256 62T1079 -1T836 -23ZM794 1587Q693 1587 625 1611T514 1677T447 1773T411 1890L530 1914Q539 1873 555 1837T601 1774T677 1732T794 1716Q863 1716 909 1731T985 1774T1031 1837T1058 1914L1179 1892Q1165 1830 1141 1775T1074 1678T962 1612T794 1587Z"/><glyph unicode="ğ" horiz-adv-x="1223" d="M590 414Q478 414 394 433Q383 420 374 405Q358 377 358 348Q358 321 369 304T407 278T480 266T596 262Q749 262 853 250T1021 205T1113 116T1141 -27Q1141 -114 1112 -178T1018 -284T846 -346T584 -367Q448 -367 349 -355T186 -311T92 -224T61 -84Q61 -35 71 10T106 92T175 157T285 197Q250 212 232 247T213 330Q213 387 239 437Q251 462 267 482Q252 491 238 502Q182 547 155 615T127 778Q127 873 154 944T237 1062T380 1133T590 1157Q645 1157 699 1152L1094 1198V1069H904Q924 1058 942 1046Q980 1019 1005 982T1044 894T1057 778Q1057 590 944 502T590 414ZM590 549Q674 549 733 562T830 603T885 674T903 778Q903 900 824 956T590 1012Q506 1012 447 998T351 956T296 883T279 778Q279 718 296 675T350 604T447 563T590 549ZM588 -238Q708 -238 785 -225T906 -187T966 -124T983 -37Q983 14 963 46T897 96T775 120T588 127Q466 127 393 112T280 72T229 12T217 -61Q217 -113 239 -147T306 -201T422 -230T588 -238ZM608 1229Q507 1229 439 1253T328 1319T261 1415T225 1532L344 1556Q353 1515 369 1479T415 1416T491 1374T608 1358Q677 1358 723 1373T799 1416T845 1479T872 1556L993 1534Q979 1472 955 1417T888 1320T776 1254T608 1229Z"/><glyph unicode="Ģ" horiz-adv-x="1591" d="M690 -428Q721 -411 741 -396T774 -364T790 -325T795 -274H703V-80H889V-229Q889 -286 882 -326T858 -397T810 -452T731 -500L690 -428ZM836 -23Q634 -23 492 26T261 174T131 419T90 760Q90 965 139 1113T285 1356T521 1496T844 1542Q953 1542 1039 1526T1192 1484T1310 1423T1397 1354L1282 1237Q1246 1268 1204 1296T1108 1344T990 1377T844 1389Q548 1389 399 1235T250 758Q250 597 282 477T385 278T568 160T842 121Q995 121 1091 153T1243 250T1318 409T1339 631V680H827V829H1499V657Q1499 554 1489 464T1451 298T1377 163T1256 62T1079 -1T836 -23Z"/><glyph unicode="ģ" horiz-adv-x="1223" d="M517 1384Q517 1441 523 1482T547 1553T595 1608T674 1657L715 1583Q683 1566 663 1551T632 1519T616 1481T611 1430H703V1247H517V1384ZM590 414Q478 414 394 433Q383 420 374 405Q358 377 358 348Q358 321 369 304T407 278T480 266T596 262Q749 262 853 250T1021 205T1113 116T1141 -27Q1141 -114 1112 -178T1018 -284T846 -346T584 -367Q448 -367 349 -355T186 -311T92 -224T61 -84Q61 -35 71 10T106 92T175 157T285 197Q250 212 232 247T213 330Q213 387 239 437Q251 462 267 482Q252 491 238 502Q182 547 155 615T127 778Q127 873 154 944T237 1062T380 1133T590 1157Q645 1157 699 1152L1094 1198V1069H904Q924 1058 942 1046Q980 1019 1005 982T1044 894T1057 778Q1057 590 944 502T590 414ZM590 549Q674 549 733 562T830 603T885 674T903 778Q903 900 824 956T590 1012Q506 1012 447 998T351 956T296 883T279 778Q279 718 296 675T350 604T447 563T590 549ZM588 -238Q708 -238 785 -225T906 -187T966 -124T983 -37Q983 14 963 46T897 96T775 120T588 127Q466 127 393 112T280 72T229 12T217 -61Q217 -113 239 -147T306 -201T422 -230T588 -238Z"/><glyph unicode="Ī" horiz-adv-x="547" d="M195 1518H352V0H195V1518ZM-93 1732H644V1599H-93V1732Z"/><glyph unicode="ī" horiz-adv-x="487" d="M166 1130H319V0H166V1130ZM-121 1374H616V1241H-121V1374Z"/><glyph unicode="Į" horiz-adv-x="547" d="M256 -444Q185 -444 139 -428T65 -384T26 -318T14 -236Q14 -193 28 -155T68 -83T126 -23T195 27V1518H352V0Q246 -57 200 -110T154 -219Q154 -239 158 -258T176 -292T213 -316T276 -326Q321 -326 358 -318T424 -299L471 -406Q437 -424 381 -434T256 -444Z"/><glyph unicode="į" horiz-adv-x="487" d="M223 -444Q152 -444 106 -428T32 -384T-7 -318T-18 -236Q-18 -193 -3 -154T37 -82T96 -20T166 29V1130H319V0Q219 -57 170 -110T121 -219Q121 -239 125 -258T143 -292T180 -316T244 -326Q289 -326 326 -318T391 -299L438 -406Q404 -424 348 -434T223 -444ZM166 1501H322V1280H166V1501Z"/><glyph unicode="İ" horiz-adv-x="547" d="M195 1518H352V0H195V1518ZM197 1824H353V1605H197V1824Z"/><glyph unicode="ı" horiz-adv-x="487" d="M166 1130H319V0H166V1130Z"/><glyph unicode="Ķ" horiz-adv-x="1442" d="M614 -428Q645 -411 665 -396T698 -364T714 -325T719 -274H627V-80H813V-229Q813 -286 806 -326T782 -397T734 -452T655 -500L614 -428ZM178 1518H336V680L1104 1518H1290L745 921L1364 0H1182L639 805L336 473V0H178V1518Z"/><glyph unicode="ķ" horiz-adv-x="1110" d="M446 -428Q477 -411 497 -396T530 -364T546 -325T551 -274H459V-80H645V-229Q645 -286 638 -326T614 -397T566 -452T487 -500L446 -428ZM156 1589H309V508L854 1130H1026L617 657L1069 0H897L515 546L309 313V0H156V1589Z"/><glyph unicode="Ĺ" horiz-adv-x="1202" d="M503 1927H693L341 1607H193L503 1927ZM178 1518H340V147H1147V0H178V1518Z"/><glyph unicode="ĺ" horiz-adv-x="598" d="M476 1979H666L314 1659H166L476 1979ZM401 -2Q332 -2 287 13T215 62T177 146T166 270V1589H319V287Q319 245 323 217T341 171T381 145T451 137H500V2Q487 0 460 -1T401 -2Z"/><glyph unicode="Ļ" horiz-adv-x="1202" d="M493 -428Q524 -411 544 -396T577 -364T593 -325T598 -274H506V-80H692V-229Q692 -286 685 -326T661 -397T613 -452T534 -500L493 -428ZM178 1518H340V147H1147V0H178V1518Z"/><glyph unicode="ļ" horiz-adv-x="598" d="M192 -428Q223 -411 243 -396T276 -364T292 -325T297 -274H205V-80H391V-229Q391 -286 384 -326T360 -397T312 -452T233 -500L192 -428ZM401 -2Q332 -2 287 13T215 62T177 146T166 270V1589H319V287Q319 245 323 217T341 171T381 145T451 137H500V2Q487 0 460 -1T401 -2Z"/><glyph unicode="Ľ" horiz-adv-x="1202" d="M547 1243Q578 1260 598 1275T630 1307T646 1345T651 1395H563V1589H743V1442Q743 1384 737 1343T713 1272T666 1217T588 1169L547 1243ZM178 1518H340V147H1147V0H178V1518Z"/><glyph unicode="ľ" horiz-adv-x="696" d="M492 1243Q522 1260 542 1275T574 1307T591 1345T596 1395H508V1589H688V1442Q688 1384 682 1343T658 1272T610 1217T532 1169L492 1243ZM401 -2Q332 -2 287 13T215 62T177 146T166 270V1589H319V287Q319 245 323 217T341 171T381 145T451 137H500V2Q487 0 460 -1T401 -2Z"/><glyph unicode="Ł" horiz-adv-x="1202" d="M0 766L178 865V1518H340V956L682 1147V1008L340 817V147H1147V0H178V726L0 627V766Z"/><glyph unicode="ł" horiz-adv-x="723" d="M45 932L250 1051V1589H406V1141L635 1274V1139L406 1007V283Q406 241 410 212T427 166T466 141T535 133H584V2Q571 0 545 -1T485 -2Q416 -2 371 13T299 62T261 146T250 268V917L45 799V932Z"/><glyph unicode="Ń" horiz-adv-x="1595" d="M946 1927H1136L784 1607H636L946 1927ZM178 1518H354L1262 266V1518H1417V0H1270L334 1288V0H178V1518Z"/><glyph unicode="ń" horiz-adv-x="1270" d="M785 1569H975L623 1249H475L785 1569ZM156 1122L279 1130L293 1012Q311 1041 342 1067T423 1114T544 1145T713 1157Q849 1157 930 1124T1053 1029T1107 881T1120 690V0H965V664Q965 739 958 801T921 909T832 979T668 1004Q555 1004 485 977T377 900T325 783T311 635V0H156V1122Z"/><glyph unicode="Ņ" horiz-adv-x="1595" d="M690 -428Q721 -411 741 -396T774 -364T790 -325T795 -274H703V-80H889V-229Q889 -286 882 -326T858 -397T810 -452T731 -500L690 -428ZM178 1518H354L1262 266V1518H1417V0H1270L334 1288V0H178V1518Z"/><glyph unicode="ņ" horiz-adv-x="1270" d="M526 -428Q557 -411 577 -396T610 -364T626 -325T631 -274H539V-80H725V-229Q725 -286 718 -326T694 -397T646 -452T567 -500L526 -428ZM156 1122L279 1130L293 1012Q311 1041 342 1067T423 1114T544 1145T713 1157Q849 1157 930 1124T1053 1029T1107 881T1120 690V0H965V664Q965 739 958 801T921 909T832 979T668 1004Q555 1004 485 977T377 900T325 783T311 635V0H156V1122Z"/><glyph unicode="Ň" horiz-adv-x="1595" d="M395 1927H550L796 1708L1040 1927H1191L880 1607H706L395 1927ZM178 1518H354L1262 266V1518H1417V0H1270L334 1288V0H178V1518Z"/><glyph unicode="ň" horiz-adv-x="1270" d="M234 1569H389L635 1350L879 1569H1030L719 1249H545L234 1569ZM156 1122L279 1130L293 1012Q311 1041 342 1067T423 1114T544 1145T713 1157Q849 1157 930 1124T1053 1029T1107 881T1120 690V0H965V664Q965 739 958 801T921 909T832 979T668 1004Q555 1004 485 977T377 900T325 783T311 635V0H156V1122Z"/><glyph unicode="Ō" horiz-adv-x="1708" d="M484 1732H1221V1599H484V1732ZM852 -25Q670 -25 529 21T290 164T141 408T90 760Q90 962 141 1109T289 1353T528 1495T852 1542Q1035 1542 1177 1496T1418 1353T1567 1110T1618 760Q1618 556 1567 408T1418 164T1178 22T852 -25ZM852 125Q1007 125 1121 166T1309 287T1420 485T1456 758Q1456 911 1420 1029T1310 1227T1121 1348T852 1389Q697 1389 584 1348T398 1227T288 1029T252 758Q252 603 288 485T397 287T584 166T852 125Z"/><glyph unicode="ō" horiz-adv-x="1292" d="M275 1374H1012V1241H275V1374ZM645 -23Q498 -23 395 14T226 126T130 310T100 567Q100 713 130 823T225 1008T394 1119T645 1157Q792 1157 895 1120T1065 1008T1161 824T1192 567Q1192 421 1162 311T1065 126T896 15T645 -23ZM645 119Q752 119 826 147T946 232T1013 372T1034 563Q1034 672 1014 755T947 895T826 981T645 1010Q538 1010 464 981T344 896T277 756T256 563Q256 455 276 372T343 233T464 148T645 119Z"/><glyph unicode="Ő" horiz-adv-x="1708" d="M731 1925H916L613 1607H473L731 1925ZM1196 1925H1378L1077 1607H938L1196 1925ZM852 -25Q670 -25 529 21T290 164T141 408T90 760Q90 962 141 1109T289 1353T528 1495T852 1542Q1035 1542 1177 1496T1418 1353T1567 1110T1618 760Q1618 556 1567 408T1418 164T1178 22T852 -25ZM852 125Q1007 125 1121 166T1309 287T1420 485T1456 758Q1456 911 1420 1029T1310 1227T1121 1348T852 1389Q697 1389 584 1348T398 1227T288 1029T252 758Q252 603 288 485T397 287T584 166T852 125Z"/><glyph unicode="ő" horiz-adv-x="1292" d="M522 1567H707L404 1249H264L522 1567ZM987 1567H1169L868 1249H729L987 1567ZM645 -23Q498 -23 395 14T226 126T130 310T100 567Q100 713 130 823T225 1008T394 1119T645 1157Q792 1157 895 1120T1065 1008T1161 824T1192 567Q1192 421 1162 311T1065 126T896 15T645 -23ZM645 119Q752 119 826 147T946 232T1013 372T1034 563Q1034 672 1014 755T947 895T826 981T645 1010Q538 1010 464 981T344 896T277 756T256 563Q256 455 276 372T343 233T464 148T645 119Z"/><glyph unicode="Œ" horiz-adv-x="2580" d="M1466 1518H2454V1364H1612V862H2433V715H1612V147H2462V0H1466V246Q1440 205 1408 171Q1318 73 1180 24T852 -25Q663 -25 521 21T282 164T138 408T90 760Q90 962 138 1109T282 1353T520 1495T852 1542Q1042 1542 1180 1494T1408 1347Q1440 1313 1466 1272V1518ZM852 125Q1013 125 1127 166T1315 287T1422 485T1456 758Q1456 911 1422 1029T1315 1227T1128 1348T852 1389Q691 1389 578 1348T392 1227T286 1029T252 758Q252 603 285 485T391 287T577 166T852 125Z"/><glyph unicode="œ" horiz-adv-x="2146" d="M1577 -23Q1461 -23 1377 -2T1235 58T1140 151Q1123 176 1110 204Q1088 163 1060 129Q997 54 895 16T645 -23Q496 -23 393 14T224 126T130 310T100 567Q100 713 129 823T224 1008T392 1119T645 1157Q793 1157 895 1119T1060 1005Q1089 970 1111 927Q1125 956 1143 983Q1180 1037 1237 1076T1377 1136T1571 1157Q1687 1157 1767 1133T1899 1064T1979 960T2021 828T2035 676T2036 514H1184Q1187 444 1198 382Q1212 300 1254 240T1374 147T1577 113Q1647 113 1700 121T1795 145T1873 182T1942 227L2028 119Q1985 87 1939 61T1839 16T1721 -13T1577 -23ZM645 119Q752 119 826 147T946 232T1013 372T1034 563Q1034 672 1014 755T947 895T826 981T645 1010Q538 1010 464 981T344 896T277 756T256 563Q256 455 276 372T343 233T464 148T645 119ZM1888 653Q1885 703 1881 749T1866 837T1835 911T1779 968T1693 1005T1567 1018Q1445 1018 1370 985T1254 891T1198 746Q1191 702 1187 653H1888Z"/><glyph unicode="Ŕ" horiz-adv-x="1470" d="M883 1927H1073L721 1607H573L883 1927ZM178 1518H834Q1098 1518 1222 1409T1346 1073Q1346 849 1220 733Q1126 647 956 625L1323 0H1151L789 618H336V0H178V1518ZM836 766Q917 766 981 780T1091 828T1160 920T1184 1067Q1184 1155 1161 1213T1092 1306T980 1354T829 1368H336V766H836Z"/><glyph unicode="ŕ" horiz-adv-x="735" d="M542 1569H732L380 1249H232L542 1569ZM156 1122L279 1130L295 979Q311 1012 345 1042T428 1094T543 1130T686 1145V989Q582 989 511 961T395 883T331 763T311 610V0H156V1122Z"/><glyph unicode="Ŗ" horiz-adv-x="1470" d="M628 -428Q659 -411 679 -396T712 -364T728 -325T733 -274H641V-80H827V-229Q827 -286 820 -326T796 -397T748 -452T669 -500L628 -428ZM178 1518H834Q1098 1518 1222 1409T1346 1073Q1346 849 1220 733Q1126 647 956 625L1323 0H1151L789 618H336V0H178V1518ZM836 766Q917 766 981 780T1091 828T1160 920T1184 1067Q1184 1155 1161 1213T1092 1306T980 1354T829 1368H336V766H836Z"/><glyph unicode="ŗ" horiz-adv-x="735" d="M388 -428Q419 -411 439 -396T472 -364T488 -325T493 -274H401V-80H587V-229Q587 -286 580 -326T556 -397T508 -452T429 -500L388 -428ZM156 1122L279 1130L295 979Q311 1012 345 1042T428 1094T543 1130T686 1145V989Q582 989 511 961T395 883T331 763T311 610V0H156V1122Z"/><glyph unicode="Ř" horiz-adv-x="1470" d="M332 1927H487L733 1708L977 1927H1128L817 1607H643L332 1927ZM178 1518H834Q1098 1518 1222 1409T1346 1073Q1346 849 1220 733Q1126 647 956 625L1323 0H1151L789 618H336V0H178V1518ZM836 766Q917 766 981 780T1091 828T1160 920T1184 1067Q1184 1155 1161 1213T1092 1306T980 1354T829 1368H336V766H836Z"/><glyph unicode="ř" horiz-adv-x="719" d="M-38 1569H117L363 1350L607 1569H758L447 1249H273L-38 1569ZM156 1122L279 1130L295 979Q311 1012 345 1042T428 1094T543 1130T686 1145V989Q582 989 511 961T395 883T331 763T311 610V0H156V1122Z"/><glyph unicode="Ś" horiz-adv-x="1440" d="M869 1927H1059L707 1607H559L869 1927ZM713 -20Q540 -20 384 19T84 154L166 276Q234 233 302 204T437 157T572 131T709 123Q826 123 911 140T1052 193T1134 285T1161 420Q1161 501 1129 550T1037 629T895 678T709 715Q627 729 555 744T421 781T312 831T230 902T178 1001T160 1135Q160 1244 195 1321T299 1448T471 1519T709 1542Q887 1542 1016 1505T1237 1407L1151 1276Q1110 1303 1060 1325T954 1362T835 1386T709 1395Q607 1395 533 1381T412 1335T342 1255T319 1139Q319 1067 348 1021T432 946T566 897T748 860Q872 838 977 813T1158 743T1276 623T1319 426Q1319 200 1171 90T713 -20Z"/><glyph unicode="ś" horiz-adv-x="1069" d="M943 1569H1133L781 1249H633L943 1569ZM532 -20Q476 -20 417 -15T298 5T179 44T61 106L143 227Q193 195 244 174T347 139T447 121T541 115Q617 115 673 123T767 154T822 215T840 313Q840 361 824 391T772 442T679 477T541 508Q443 527 364 548T230 606T145 699T115 848Q115 921 137 978T211 1075T343 1136T541 1157Q669 1157 772 1131T954 1059L881 932Q816 967 731 990T543 1014Q463 1014 410 1003T326 970T281 917T268 848Q268 801 284 770T334 718T421 683T549 653Q652 632 733 612T872 556T959 466T989 319Q989 222 962 157T878 53T736 -3T532 -20Z"/><glyph unicode="Ş" horiz-adv-x="1440" d="M713 -20Q540 -20 384 19T84 154L166 276Q234 233 302 204T437 157T572 131T709 123Q826 123 911 140T1052 193T1134 285T1161 420Q1161 501 1129 550T1037 629T895 678T709 715Q627 729 555 744T421 781T312 831T230 902T178 1001T160 1135Q160 1244 195 1321T299 1448T471 1519T709 1542Q887 1542 1016 1505T1237 1407L1151 1276Q1110 1303 1060 1325T954 1362T835 1386T709 1395Q607 1395 533 1381T412 1335T342 1255T319 1139Q319 1067 348 1021T432 946T566 897T748 860Q872 838 977 813T1158 743T1276 623T1319 426Q1319 200 1171 90T713 -20ZM734 -461Q656 -461 599 -444T496 -401L543 -315Q583 -337 629 -349T727 -362Q779 -362 810 -353T859 -329T883 -295T889 -254Q889 -226 880 -207T849 -177T790 -163T697 -162L652 -129L680 14H781L762 -92Q808 -89 851 -92T928 -114T982 -167T1002 -264Q1002 -307 989 -343T944 -405T861 -446T734 -461Z"/><glyph unicode="ş" horiz-adv-x="1069" d="M532 -20Q476 -20 417 -15T298 5T179 44T61 106L143 227Q193 195 244 174T347 139T447 121T541 115Q617 115 673 123T767 154T822 215T840 313Q840 361 824 391T772 442T679 477T541 508Q443 527 364 548T230 606T145 699T115 848Q115 921 137 978T211 1075T343 1136T541 1157Q669 1157 772 1131T954 1059L881 932Q816 967 731 990T543 1014Q463 1014 410 1003T326 970T281 917T268 848Q268 801 284 770T334 718T421 683T549 653Q652 632 733 612T872 556T959 466T989 319Q989 222 962 157T878 53T736 -3T532 -20ZM808 -461Q730 -461 673 -444T570 -401L617 -315Q657 -337 703 -349T801 -362Q853 -362 884 -353T933 -329T957 -295T963 -254Q963 -226 954 -207T923 -177T864 -163T771 -162L726 -129L754 14H855L836 -92Q882 -89 925 -92T1002 -114T1056 -167T1076 -264Q1076 -307 1063 -343T1018 -405T935 -446T808 -461Z"/><glyph unicode="Š" horiz-adv-x="1440" d="M318 1927H473L719 1708L963 1927H1114L803 1607H629L318 1927ZM713 -20Q540 -20 384 19T84 154L166 276Q234 233 302 204T437 157T572 131T709 123Q826 123 911 140T1052 193T1134 285T1161 420Q1161 501 1129 550T1037 629T895 678T709 715Q627 729 555 744T421 781T312 831T230 902T178 1001T160 1135Q160 1244 195 1321T299 1448T471 1519T709 1542Q887 1542 1016 1505T1237 1407L1151 1276Q1110 1303 1060 1325T954 1362T835 1386T709 1395Q607 1395 533 1381T412 1335T342 1255T319 1139Q319 1067 348 1021T432 946T566 897T748 860Q872 838 977 813T1158 743T1276 623T1319 426Q1319 200 1171 90T713 -20Z"/><glyph unicode="š" horiz-adv-x="1069" d="M392 1569H547L793 1350L1037 1569H1188L877 1249H703L392 1569ZM532 -20Q476 -20 417 -15T298 5T179 44T61 106L143 227Q193 195 244 174T347 139T447 121T541 115Q617 115 673 123T767 154T822 215T840 313Q840 361 824 391T772 442T679 477T541 508Q443 527 364 548T230 606T145 699T115 848Q115 921 137 978T211 1075T343 1136T541 1157Q669 1157 772 1131T954 1059L881 932Q816 967 731 990T543 1014Q463 1014 410 1003T326 970T281 917T268 848Q268 801 284 770T334 718T421 683T549 653Q652 632 733 612T872 556T959 466T989 319Q989 222 962 157T878 53T736 -3T532 -20Z"/><glyph unicode="Ţ" horiz-adv-x="1409" d="M598 -428Q629 -411 649 -396T682 -364T698 -325T703 -274H611V-80H797V-229Q797 -286 790 -326T766 -397T718 -452T639 -500L598 -428ZM625 1364H55V1518H1356V1364H786V0H625V1364Z"/><glyph unicode="ţ" horiz-adv-x="831" d="M250 -428Q281 -411 301 -396T334 -364T350 -325T355 -274H263V-80H449V-229Q449 -286 442 -326T418 -397T370 -452T291 -500L250 -428ZM63 1130H270L297 1470L420 1493V1130H731V989H420V309Q420 270 424 238T446 184T498 149T592 137H731V0Q725 -1 702 -1T652 -2H567Q472 -2 413 17T322 73T278 164T266 291V989H63V1130Z"/><glyph unicode="Ť" horiz-adv-x="1409" d="M303 1927H458L704 1708L948 1927H1099L788 1607H614L303 1927ZM625 1364H55V1518H1356V1364H786V0H625V1364Z"/><glyph unicode="ť" horiz-adv-x="831" d="M592 1407Q622 1424 641 1439T673 1471T689 1509T694 1559H610V1747H784V1602Q784 1546 778 1506T754 1436T708 1383T631 1335L592 1407ZM63 1130H270L297 1470L420 1493V1130H731V989H420V309Q420 270 424 238T446 184T498 149T592 137H731V0Q725 -1 702 -1T652 -2H567Q472 -2 413 17T322 73T278 164T266 291V989H63V1130Z"/><glyph unicode="Ū" horiz-adv-x="1593" d="M795 -25Q660 -25 562 -4T393 56T280 148T211 265T177 400T168 547V1518H330V565Q330 468 349 388T419 249T560 158T795 125Q940 125 1032 157T1177 247T1250 386T1270 565V1518H1425V547Q1425 472 1416 400T1381 265T1311 148T1197 57T1028 -3T795 -25ZM426 1732H1163V1599H426V1732Z"/><glyph unicode="ū" horiz-adv-x="1257" d="M633 -20Q523 -20 445 -5T313 39T227 110T178 205T156 324T150 465V1130H303V461Q303 414 304 371T315 290T344 221T400 168T493 133T633 121Q715 121 771 133T862 167T917 221T945 292T955 375T956 469V1130H1108V471Q1108 394 1103 328T1082 208T1034 111T950 39T820 -5T633 -20ZM259 1374H996V1241H259V1374Z"/><glyph unicode="Ů" horiz-adv-x="1593" d="M794 1585Q729 1585 683 1604T606 1657T562 1737T548 1837Q548 1891 562 1937T606 2017T682 2071T794 2091Q855 2091 901 2072T977 2018T1023 1937T1038 1837Q1038 1783 1023 1737T978 1657T901 1604T794 1585ZM794 1677Q834 1677 863 1689T910 1723T937 1774T946 1837Q946 1871 938 1900T911 1950T863 1984T794 1996Q753 1996 724 1984T677 1951T650 1900T641 1837Q641 1803 649 1774T676 1724T724 1690T794 1677ZM795 -25Q660 -25 562 -4T393 56T280 148T211 265T177 400T168 547V1518H330V565Q330 468 349 388T419 249T560 158T795 125Q940 125 1032 157T1177 247T1250 386T1270 565V1518H1425V547Q1425 472 1416 400T1381 265T1311 148T1197 57T1028 -3T795 -25Z"/><glyph unicode="ů" horiz-adv-x="1257" d="M627 1227Q562 1227 516 1246T439 1299T395 1379T381 1479Q381 1533 395 1579T439 1659T515 1713T627 1733Q688 1733 734 1714T810 1660T856 1579T871 1479Q871 1425 856 1379T811 1299T734 1246T627 1227ZM627 1319Q667 1319 696 1331T743 1365T770 1416T779 1479Q779 1513 771 1542T744 1592T696 1626T627 1638Q586 1638 557 1626T510 1593T483 1542T474 1479Q474 1445 482 1416T509 1366T557 1332T627 1319ZM633 -20Q523 -20 445 -5T313 39T227 110T178 205T156 324T150 465V1130H303V461Q303 414 304 371T315 290T344 221T400 168T493 133T633 121Q715 121 771 133T862 167T917 221T945 292T955 375T956 469V1130H1108V471Q1108 394 1103 328T1082 208T1034 111T950 39T820 -5T633 -20Z"/><glyph unicode="Ű" horiz-adv-x="1593" d="M795 -25Q660 -25 562 -4T393 56T280 148T211 265T177 400T168 547V1518H330V565Q330 468 349 388T419 249T560 158T795 125Q940 125 1032 157T1177 247T1250 386T1270 565V1518H1425V547Q1425 472 1416 400T1381 265T1311 148T1197 57T1028 -3T795 -25ZM673 1925H858L555 1607H415L673 1925ZM1138 1925H1320L1019 1607H880L1138 1925Z"/><glyph unicode="ű" horiz-adv-x="1257" d="M633 -20Q523 -20 445 -5T313 39T227 110T178 205T156 324T150 465V1130H303V461Q303 414 304 371T315 290T344 221T400 168T493 133T633 121Q715 121 771 133T862 167T917 221T945 292T955 375T956 469V1130H1108V471Q1108 394 1103 328T1082 208T1034 111T950 39T820 -5T633 -20ZM506 1567H691L388 1249H248L506 1567ZM971 1567H1153L852 1249H713L971 1567Z"/><glyph unicode="Ų" horiz-adv-x="1593" d="M852 -444Q775 -444 726 -428T649 -385T611 -320T600 -240Q600 -206 611 -175T640 -117T681 -66T729 -23Q609 -18 521 6T370 70T268 162T207 276T176 406T168 547V1518H330V565Q330 468 349 388T419 249T560 158T795 125Q940 125 1032 157T1177 247T1250 386T1270 565V1518H1425V547Q1425 476 1417 409T1386 281T1326 168T1228 77T1084 12T887 -20Q816 -71 778 -123T739 -221Q739 -241 743 -260T762 -293T803 -317T872 -326Q923 -326 971 -314T1049 -287L1096 -393Q1052 -416 987 -430T852 -444Z"/><glyph unicode="ų" horiz-adv-x="1257" d="M684 -444Q607 -444 558 -428T481 -385T443 -320T432 -240Q432 -204 443 -173T474 -113T517 -62T565 -18Q471 -13 404 4T291 52T217 123T174 217T155 331T150 465V1130H303V461Q303 414 304 371T315 290T344 221T400 168T493 133T633 121Q715 121 771 133T862 167T917 221T945 292T955 375T956 469V1130H1108V471Q1108 364 1097 278T1047 130T932 30T725 -16Q651 -67 611 -120T571 -221Q571 -241 576 -260T595 -293T635 -317T705 -326Q730 -326 755 -323T803 -314T846 -301T881 -287L928 -393Q884 -416 819 -430T684 -444Z"/><glyph unicode="Ÿ" horiz-adv-x="1434" d="M27 1518H203L719 735L1239 1518H1405L797 594V0H637V589L27 1518ZM428 1820H572V1611H428V1820ZM861 1820H1002V1611H861V1820Z"/><glyph unicode="Ź" horiz-adv-x="1362" d="M832 1927H1022L670 1607H522L832 1927ZM92 129L1042 1364H127V1518H1241V1378L295 147H1264V0H92V129Z"/><glyph unicode="ź" horiz-adv-x="1028" d="M925 1569H1115L763 1249H615L925 1569ZM68 117L743 989H102V1130H942V1012L266 133H965V0H68V117Z"/><glyph unicode="Ż" horiz-adv-x="1362" d="M92 129L1042 1364H127V1518H1241V1378L295 147H1264V0H92V129ZM602 1824H758V1605H602V1824Z"/><glyph unicode="ż" horiz-adv-x="1028" d="M68 117L743 989H102V1130H942V1012L266 133H965V0H68V117ZM695 1466H851V1247H695V1466Z"/><glyph unicode="Ž" horiz-adv-x="1362" d="M281 1927H436L682 1708L926 1927H1077L766 1607H592L281 1927ZM92 129L1042 1364H127V1518H1241V1378L295 147H1264V0H92V129Z"/><glyph unicode="ž" horiz-adv-x="1028" d="M374 1569H529L775 1350L1019 1569H1170L859 1249H685L374 1569ZM68 117L743 989H102V1130H942V1012L266 133H965V0H68V117Z"/><glyph unicode="ƒ" horiz-adv-x="1085" d="M180 924H426L483 1192Q497 1260 516 1319T574 1423T679 1492T854 1518H920V1372H862Q794 1372 753 1354T687 1306T650 1235T629 1149L581 924H920V782H551L313 -340H158L396 782H180V924Z"/><glyph unicode="Ș" horiz-adv-x="0"/><glyph unicode="ș" horiz-adv-x="0"/><glyph unicode="Ț" horiz-adv-x="1409" d="M598 -428Q629 -411 649 -396T682 -364T698 -325T703 -274H611V-80H797V-229Q797 -286 790 -326T766 -397T718 -452T639 -500L598 -428ZM625 1364H55V1518H1356V1364H786V0H625V1364Z"/><glyph unicode="ț" horiz-adv-x="831" d="M250 -428Q281 -411 301 -396T334 -364T350 -325T355 -274H263V-80H449V-229Q449 -286 442 -326T418 -397T370 -452T291 -500L250 -428ZM63 1130H270L297 1470L420 1493V1130H731V989H420V309Q420 270 424 238T446 184T498 149T592 137H731V0Q725 -1 702 -1T652 -2H567Q472 -2 413 17T322 73T278 164T266 291V989H63V1130Z"/><glyph unicode="ˆ" horiz-adv-x="1208" d="M516 1569H690L1001 1249H846L600 1468L358 1249H205L516 1569Z"/><glyph unicode="ˇ" horiz-adv-x="1208" d="M205 1569H360L606 1350L850 1569H1001L690 1249H516L205 1569Z"/><glyph unicode="˘" horiz-adv-x="1208" d="M604 1229Q503 1229 435 1253T324 1319T257 1415T221 1532L340 1556Q349 1515 365 1479T411 1416T487 1374T604 1358Q673 1358 719 1373T795 1416T841 1479T868 1556L989 1534Q975 1472 951 1417T884 1320T772 1254T604 1229Z"/><glyph unicode="˙" horiz-adv-x="1208" d="M526 1466H682V1247H526V1466Z"/><glyph unicode="˚" horiz-adv-x="1208" d="M604 1227Q539 1227 493 1246T416 1299T372 1379T358 1479Q358 1533 372 1579T416 1659T492 1713T604 1733Q665 1733 711 1714T787 1660T833 1579T848 1479Q848 1425 833 1379T788 1299T711 1246T604 1227ZM604 1319Q644 1319 673 1331T720 1365T747 1416T756 1479Q756 1513 748 1542T721 1592T673 1626T604 1638Q563 1638 534 1626T487 1593T460 1542T451 1479Q451 1445 459 1416T486 1366T534 1332T604 1319Z"/><glyph unicode="˛" horiz-adv-x="1208" d="M618 -444Q541 -444 493 -428T416 -385T378 -320T367 -240Q367 -195 385 -156T432 -85T493 -27T555 16H715Q615 -41 561 -103T506 -221Q506 -241 510 -260T529 -293T570 -317T639 -326Q690 -326 738 -314T815 -287L862 -393Q819 -416 754 -430T618 -444Z"/><glyph unicode="˜" horiz-adv-x="1208" d="M211 1331Q236 1362 266 1390T328 1438T393 1471T461 1483Q513 1483 549 1468T617 1434T677 1400T745 1384Q765 1384 785 1393T826 1417T866 1453T905 1495L999 1419Q973 1387 944 1357T883 1304T817 1267T748 1253Q702 1253 666 1269T597 1303T532 1338T463 1354Q426 1354 385 1327T309 1255L211 1331Z"/><glyph unicode="˝" horiz-adv-x="1208" d="M483 1567H668L365 1249H225L483 1567ZM948 1567H1130L829 1249H690L948 1567Z"/><glyph unicode="̄" horiz-adv-x="1208" d="M236 1374H973V1241H236V1374Z"/><glyph unicode="̦" horiz-adv-x="489" d="M139 -428Q170 -411 190 -396T223 -364T239 -325T244 -274H152V-80H338V-229Q338 -286 331 -326T307 -397T259 -452T180 -500L139 -428Z"/><glyph unicode="Δ" horiz-adv-x="0"/><glyph unicode="Ω" horiz-adv-x="0"/><glyph unicode="μ" horiz-adv-x="1266" d="M156 1130H311V461Q311 414 312 371T323 290T351 221T408 168T501 133T641 121Q723 121 778 133T870 167T925 221T952 292T962 375T963 469V1130H1116V471Q1116 394 1111 328T1090 208T1043 111T960 39T832 -5T649 -20Q576 -20 521 -13T424 9T356 43T311 90V-338H156V1130Z"/><glyph unicode="π" horiz-adv-x="0"/><glyph unicode="Ё" horiz-adv-x="1309" d="M364 1820H508V1611H364V1820ZM797 1820H938V1611H797V1820ZM178 1518H1182V1364H340V862H1161V711H340V147H1190V0H178V1518Z"/><glyph unicode="Ђ" horiz-adv-x="1774" d="M1270 -213H1284Q1332 -212 1361 -204T1407 -175T1428 -122T1434 -37V664Q1434 714 1432 759T1420 842T1391 910T1339 962T1257 994T1139 1006Q1028 1006 959 979T852 905T800 792T786 649V0H625V1364H55V1518H1356V1364H786V1018Q802 1046 831 1071T907 1116T1022 1146T1184 1157Q1275 1157 1340 1142T1451 1098T1525 1028T1568 935T1588 822T1593 690V-37Q1593 -123 1581 -181T1535 -275T1445 -326T1298 -342H1270V-213Z"/><glyph unicode="Ѓ" horiz-adv-x="1204" d="M753 1927H943L591 1607H443L753 1927ZM178 1518H1147V1364H340V0H178V1518Z"/><glyph unicode="Є" horiz-adv-x="1477" d="M836 -23Q465 -23 278 175T90 760Q90 959 142 1106T292 1350T527 1494T836 1542Q996 1542 1136 1495T1376 1352L1268 1237Q1186 1311 1076 1350T844 1389Q702 1389 591 1350T404 1231T288 1033Q260 952 252 854H1192V702H249Q262 432 398 288Q549 129 836 129Q921 129 988 141T1109 175T1204 226T1280 287L1386 176Q1346 138 1296 102T1179 38T1028 -6T836 -23Z"/><glyph unicode="Ѕ" horiz-adv-x="1440" d="M713 -20Q540 -20 384 19T84 154L166 276Q234 233 302 204T437 157T572 131T709 123Q826 123 911 140T1052 193T1134 285T1161 420Q1161 501 1129 550T1037 629T895 678T709 715Q627 729 555 744T421 781T312 831T230 902T178 1001T160 1135Q160 1244 195 1321T299 1448T471 1519T709 1542Q887 1542 1016 1505T1237 1407L1151 1276Q1110 1303 1060 1325T954 1362T835 1386T709 1395Q607 1395 533 1381T412 1335T342 1255T319 1139Q319 1067 348 1021T432 946T566 897T748 860Q872 838 977 813T1158 743T1276 623T1319 426Q1319 200 1171 90T713 -20Z"/><glyph unicode="І" horiz-adv-x="547" d="M195 1518H352V0H195V1518Z"/><glyph unicode="Ї" horiz-adv-x="547" d="M195 1518H352V0H195V1518ZM-12 1820H132V1611H-12V1820ZM421 1820H562V1611H421V1820Z"/><glyph unicode="Ј" horiz-adv-x="819" d="M215 -2H132Q116 -2 100 -2T61 0V147H199Q280 147 335 164T426 216T476 305T492 434V1518H649V428Q649 311 622 230T540 97T404 22T215 -2Z"/><glyph unicode="Љ" horiz-adv-x="2603" d="M92 147H141Q184 147 209 155T248 180T266 226T270 297V1518H1493V909H1999Q2131 909 2228 884T2388 805T2482 668T2513 467Q2513 232 2389 116T1997 0H1335V1368H430V270Q430 198 419 147T380 62T306 14T190 -2Q182 -2 166 -1L135 0Q120 0 108 0T92 2V147ZM2003 143Q2087 143 2152 159T2262 212T2330 311T2353 461Q2353 550 2331 608T2263 702T2152 751T1997 766H1493V143H2003Z"/><glyph unicode="Њ" horiz-adv-x="2519" d="M178 1518H340V870H1251V1518H1409V909H1915Q2047 909 2144 884T2304 805T2398 668T2429 467Q2429 350 2399 262T2305 116T2145 29T1913 0H1251V713H340V0H178V1518ZM1919 143Q2003 143 2068 159T2178 212T2246 311T2269 461Q2269 550 2247 608T2179 702T2068 751T1913 766H1409V143H1919Z"/><glyph unicode="Ћ" horiz-adv-x="1774" d="M625 1364H55V1518H1356V1364H786V1018Q802 1046 831 1071T907 1116T1022 1146T1184 1157Q1275 1157 1340 1142T1451 1098T1525 1028T1568 935T1588 822T1593 690V0H1434V664Q1434 740 1427 802T1391 910T1302 979T1139 1004Q1028 1004 959 978T852 904T800 791T786 649V0H625V1364Z"/><glyph unicode="Ќ" horiz-adv-x="1442" d="M871 1927H1061L709 1607H561L871 1927ZM178 1518H336V680L1104 1518H1290L745 921L1364 0H1182L639 805L336 473V0H178V1518Z"/><glyph unicode="Ў" horiz-adv-x="1419" d="M53 1518H223L741 532L1225 1518H1386L739 229Q709 168 681 124T619 52T541 11T432 -2H367Q349 -2 334 -2T309 0V143H410Q448 143 474 148T521 168T557 205T590 264L649 386L53 1518ZM706 1587Q605 1587 537 1611T426 1677T359 1773T323 1890L442 1914Q451 1873 467 1837T513 1774T589 1732T706 1716Q775 1716 821 1731T897 1774T943 1837T970 1914L1091 1892Q1077 1830 1053 1775T986 1678T874 1612T706 1587Z"/><glyph unicode="Џ" horiz-adv-x="1581" d="M711 0H178V1518H340V145H1243V1518H1403V0H872V-340H711V0Z"/><glyph unicode="А" horiz-adv-x="1487" d="M659 1528H821L1430 0H1266L1126 350H348L211 0H51L659 1528ZM1069 498L737 1333L403 498H1069Z"/><glyph unicode="Б" horiz-adv-x="1454" d="M178 1518H1171V1364H332V889H844Q976 889 1072 866T1232 791T1325 658T1356 459Q1356 340 1326 254T1232 111T1072 28T842 0H178V1518ZM846 141Q930 141 995 156T1105 207T1173 302T1196 451Q1196 541 1174 598T1106 687T995 732T840 745H332V141H846Z"/><glyph unicode="В" horiz-adv-x="1440" d="M178 1518H838Q1088 1518 1204 1426T1321 1149Q1321 1084 1308 1027T1268 925T1202 847T1112 799Q1237 768 1297 675T1358 420Q1358 305 1324 225T1223 95T1055 23T821 0H178V1518ZM838 145Q930 145 997 161T1109 213T1174 302T1196 434Q1196 579 1109 646T834 713H336V145H838ZM842 860Q936 860 997 880T1093 937T1143 1022T1157 1128Q1157 1187 1140 1232T1084 1308T986 1354T842 1370H336V860H842Z"/><glyph unicode="Г" horiz-adv-x="1204" d="M178 1518H1147V1364H340V0H178V1518Z"/><glyph unicode="Д" horiz-adv-x="1780" d="M98 147H152Q194 147 219 155T258 180T276 226T281 297V1518H1503V147H1681V-340H1520V0H258V-340H98V147ZM1341 143V1368H438V291Q438 267 438 246T433 206T421 171T397 143H1341Z"/><glyph unicode="Е" horiz-adv-x="1309" d="M178 1518H1182V1364H340V862H1161V711H340V147H1190V0H178V1518Z"/><glyph unicode="Ж" horiz-adv-x="2365" d="M260 0H78L697 921L152 1518H334L1106 675V1518H1260V676L2030 1518H2214L1668 922L2288 0H2105L1563 807L1260 475V0H1106V472L801 806L260 0Z"/><glyph unicode="З" horiz-adv-x="1358" d="M676 -25Q496 -25 341 7T53 117L131 250Q255 184 390 155T670 125Q787 125 871 139T1008 188T1087 284T1112 440Q1112 515 1095 572T1025 668T880 725T633 745H309V893H629Q752 893 836 907T972 952T1046 1034T1069 1157Q1069 1225 1046 1270T974 1343T849 1381T668 1393Q609 1393 542 1386T410 1365T284 1331T176 1284L94 1413Q148 1445 218 1469T367 1510T525 1534T678 1542Q811 1542 914 1524T1088 1465T1194 1356T1231 1188Q1231 1110 1220 1053T1182 955T1115 885T1012 838Q1089 818 1139 785T1220 703T1262 587T1274 432Q1274 300 1234 212T1117 72T929 -3T676 -25Z"/><glyph unicode="И" horiz-adv-x="1595" d="M178 1518H330V274L1241 1518H1417V0H1266V1282L326 0H178V1518Z"/><glyph unicode="Й" horiz-adv-x="1595" d="M178 1518H330V274L1241 1518H1417V0H1266V1282L326 0H178V1518ZM794 1587Q693 1587 625 1611T514 1677T447 1773T411 1890L530 1914Q539 1873 555 1837T601 1774T677 1732T794 1716Q863 1716 909 1731T985 1774T1031 1837T1058 1914L1179 1892Q1165 1830 1141 1775T1074 1678T962 1612T794 1587Z"/><glyph unicode="К" horiz-adv-x="1442" d="M178 1518H336V680L1104 1518H1290L745 921L1364 0H1182L639 805L336 473V0H178V1518Z"/><glyph unicode="Л" horiz-adv-x="1681" d="M98 147H147Q190 147 215 155T254 180T272 226T276 297V1518H1503V0H1341V1368H438V270Q438 198 426 147T387 62T313 14T197 -2Q189 -2 174 -2T144 -1T115 0T98 2V147Z"/><glyph unicode="М" horiz-adv-x="1872" d="M178 1518H387L936 223L1489 1518H1694V0H1536V1249L1001 0H866L332 1249V0H178V1518Z"/><glyph unicode="Н" horiz-adv-x="1591" d="M178 1518H340V870H1251V1518H1411V0H1251V713H340V0H178V1518Z"/><glyph unicode="О" horiz-adv-x="1708" d="M852 -25Q670 -25 529 21T290 164T141 408T90 760Q90 962 141 1109T289 1353T528 1495T852 1542Q1035 1542 1177 1496T1418 1353T1567 1110T1618 760Q1618 556 1567 408T1418 164T1178 22T852 -25ZM852 125Q1007 125 1121 166T1309 287T1420 485T1456 758Q1456 911 1420 1029T1310 1227T1121 1348T852 1389Q697 1389 584 1348T398 1227T288 1029T252 758Q252 603 288 485T397 287T584 166T852 125Z"/><glyph unicode="П" horiz-adv-x="1581" d="M178 1518H1403V0H1243V1368H336V0H178V1518Z"/><glyph unicode="Р" horiz-adv-x="1446" d="M178 1518H844Q1108 1518 1232 1408T1356 1065Q1356 947 1326 857T1232 707T1072 615T842 584H336V0H178V1518ZM846 733Q930 733 995 750T1105 806T1173 907T1196 1059Q1196 1148 1174 1207T1106 1302T995 1353T840 1368H336V733H846Z"/><glyph unicode="С" horiz-adv-x="1477" d="M838 -23Q647 -23 506 27T273 175T135 420T90 760Q90 959 140 1106T287 1350T525 1494T846 1542Q1008 1542 1142 1495T1376 1352L1262 1237Q1180 1311 1075 1350T844 1389Q551 1389 402 1231T252 758Q252 603 287 485T396 288T582 169T846 129Q931 129 996 141T1111 175T1201 225T1274 285L1386 176Q1347 138 1298 102T1184 38T1034 -6T838 -23Z"/><glyph unicode="Т" horiz-adv-x="1409" d="M625 1364H55V1518H1356V1364H786V0H625V1364Z"/><glyph unicode="У" horiz-adv-x="1419" d="M53 1518H223L741 532L1225 1518H1386L739 229Q709 168 681 124T619 52T541 11T432 -2H367Q349 -2 334 -2T309 0V143H410Q448 143 474 148T521 168T557 205T590 264L649 386L53 1518Z"/><glyph unicode="Ф" horiz-adv-x="2142" d="M993 262H606Q462 262 363 300T204 408T117 575T90 791Q90 908 116 1002T204 1162T363 1263T604 1298H993V1518H1149V1298H1538Q1682 1298 1780 1263T1938 1163T2025 1004T2052 793Q2052 675 2026 578T1939 410T1780 301T1538 262H1149V0H993V262ZM993 410V1153H608Q511 1153 444 1130T334 1060T272 945T252 786Q252 697 272 627T334 509T442 436T600 410H993ZM1544 410Q1635 410 1700 435T1808 509T1870 627T1890 786Q1890 876 1871 944T1809 1059T1700 1129T1536 1153H1149V410H1544Z"/><glyph unicode="Х" horiz-adv-x="1452" d="M131 1518H307L731 913L1147 1518H1325L815 793L1372 0H1192L720 675L258 0H82L637 794L131 1518Z"/><glyph unicode="Ц" horiz-adv-x="1681" d="M1421 0H178V1518H340V145H1243V1518H1403V147H1583V-340H1421V0Z"/><glyph unicode="Ч" horiz-adv-x="1499" d="M1159 668Q1143 633 1105 599T1004 537T854 492T651 475Q485 475 384 510T227 607T152 757T133 948V1518H291V977Q291 897 305 833T362 724T485 655T696 631Q837 631 927 659T1068 738T1139 858T1159 1008V1518H1321V0H1159V668Z"/><glyph unicode="Ш" horiz-adv-x="2400" d="M178 1526H340V145H1120V1526H1282V145H2062V1526H2220V0H178V1526Z"/><glyph unicode="Щ" horiz-adv-x="2499" d="M2238 0H178V1526H340V145H1120V1526H1282V145H2062V1526H2220V147H2400V-340H2238V0Z"/><glyph unicode="Ъ" horiz-adv-x="1526" d="M258 1364H80V1518H416V909H924Q1056 909 1152 884T1312 805T1405 668T1436 467Q1436 232 1313 116T922 0H258V1364ZM926 143Q1010 143 1075 159T1185 212T1253 311T1276 461Q1276 550 1254 608T1186 702T1075 751T920 766H416V143H926Z"/><glyph unicode="Ы" horiz-adv-x="1843" d="M178 1518H336V909H844Q976 909 1072 884T1232 805T1325 668T1356 467Q1356 232 1233 116T842 0H178V1518ZM846 143Q930 143 995 159T1105 212T1173 311T1196 461Q1196 550 1174 608T1106 702T995 751T840 766H336V143H846ZM1505 1518H1667V0H1505V1518Z"/><glyph unicode="Ь" horiz-adv-x="1446" d="M178 1518H336V909H844Q976 909 1072 884T1232 805T1325 668T1356 467Q1356 232 1233 116T842 0H178V1518ZM846 143Q930 143 995 159T1105 212T1173 311T1196 461Q1196 550 1174 608T1106 702T995 751T840 766H336V143H846Z"/><glyph unicode="Э" horiz-adv-x="1477" d="M283 702V854H1223Q1214 953 1187 1033Q1147 1152 1071 1231T885 1349T633 1389Q573 1389 515 1379T402 1350T298 1302T209 1237L100 1352Q200 1447 339 1494T639 1542Q811 1542 949 1495T1185 1350T1334 1106T1386 760Q1386 374 1198 176T639 -23Q531 -23 447 -7T296 38T180 102T90 176L197 287Q231 255 272 226T366 176T487 142T639 129Q926 129 1076 288Q1213 432 1225 702H283Z"/><glyph unicode="Ю" horiz-adv-x="2226" d="M178 1518H340V856H617Q626 998 664 1109Q714 1257 810 1353T1047 1495T1370 1542Q1553 1542 1695 1496T1936 1353T2085 1110T2136 760Q2136 556 2085 408T1936 164T1696 22T1370 -25Q1188 -25 1047 21T810 164T664 408Q621 535 615 705H340V0H178V1518ZM1370 125Q1525 125 1638 166T1826 287T1936 485T1972 758Q1972 911 1936 1029T1826 1227T1639 1348T1370 1389Q1215 1389 1102 1348T915 1227T804 1029T768 758Q768 449 914 287T1370 125Z"/><glyph unicode="Я" horiz-adv-x="1470" d="M1135 618H681L319 0H147L513 625Q343 647 249 733Q123 849 123 1073Q123 1186 153 1269T247 1408T407 1491T637 1518H1292V0H1135V618ZM1135 764V1372H641Q557 1372 491 1358T379 1308T309 1214T285 1067Q285 978 309 920T379 827T489 778T635 764H1135Z"/><glyph unicode="а" horiz-adv-x="1270" d="M487 -20Q368 -20 291 5T170 76T108 182T90 315Q90 436 127 516T251 645T484 713T844 733H911Q909 794 902 841Q893 900 862 938T770 994T606 1012Q552 1012 503 1004T411 981T331 949T268 913L186 1034Q214 1053 258 1074T359 1114T481 1145T618 1157Q761 1157 848 1131T982 1050T1045 908T1061 700V274Q1061 229 1064 202T1078 161T1113 142T1178 137V2Q1170 -1 1155 -1T1116 -2Q1067 -2 1035 6T982 31T950 74T932 139Q906 99 869 70T779 20T654 -10T487 -20ZM636 587Q543 582 475 571T362 539T289 490T251 420T240 326Q240 275 253 236T297 169T380 127T510 113Q617 113 693 136T817 208T888 332T911 510V592H852Q729 592 636 587Z"/><glyph unicode="б" horiz-adv-x="1292" d="M647 -23Q505 -23 402 13T231 124T132 313T100 586V842Q100 1006 123 1125T190 1328T291 1462T421 1541T571 1579T735 1589H891V1446H741Q630 1446 541 1422T388 1341T291 1191T256 958Q281 1000 318 1032T408 1086T530 1119T686 1130Q832 1130 929 1090T1084 974T1167 792T1192 551Q1192 413 1163 307T1068 127T899 15T647 -23ZM647 119Q753 119 827 146T947 229T1013 365T1034 553Q1034 661 1014 742T947 877T827 959T647 987Q541 987 467 960T346 878T278 742T256 553Q256 446 277 365T346 229T467 147T647 119Z"/><glyph unicode="в" horiz-adv-x="1245" d="M156 1130H719Q819 1130 892 1117T1012 1072T1083 988T1106 860Q1106 809 1100 766T1078 690T1032 633T956 596Q1007 584 1041 562T1097 505T1128 423T1137 313Q1137 218 1111 157T1030 61T896 13T707 0H156V1130ZM719 135Q786 135 836 143T919 174T968 233T985 330Q985 383 969 419T920 477T836 508T715 518H303V135H719ZM721 655Q791 655 836 667T908 702T945 758T956 834Q956 878 943 908T902 956T829 981T721 989H303V655H721Z"/><glyph unicode="г" horiz-adv-x="1032" d="M156 1130H983V989H311V0H156V1130Z"/><glyph unicode="д" horiz-adv-x="1505" d="M92 137H141Q184 137 209 145T248 170T266 216T270 287V1130H1235V137H1413V-340H1266V0H238V-340H92V137ZM1081 131V991H426V279Q426 226 419 191T383 131H1081Z"/><glyph unicode="е" horiz-adv-x="1214" d="M643 -23Q529 -23 445 -2T300 57T201 148T140 267T109 409T100 567Q100 690 122 797T204 985T368 1111T637 1157Q751 1157 830 1133T961 1064T1042 960T1084 828T1100 676T1102 514H250Q253 444 264 382Q278 300 320 240T440 147T643 113Q713 113 766 121T861 145T939 182T1008 227L1092 119Q1050 87 1004 61T903 16T785 -13T643 -23ZM954 655Q951 705 947 751T932 838T901 912T846 968T759 1005T633 1018Q511 1018 436 985T320 891T264 746Q257 703 253 655H954Z"/><glyph unicode="ж" horiz-adv-x="1745" d="M799 1130H946V508L1493 1130H1663L1255 657L1706 0H1534L1153 545L946 311V0H799V310L593 545L211 0H39L490 658L82 1130H252L799 510V1130Z"/><glyph unicode="з" horiz-adv-x="1147" d="M549 -25Q405 -25 278 0T49 84L119 207Q210 157 314 136T535 115Q631 115 697 123T804 155T863 220T881 330Q881 387 869 427T818 493T705 531T506 543H256V684H502Q605 684 672 691T778 718T832 772T848 860Q848 910 831 940T777 988T679 1010T532 1016Q483 1016 431 1011T328 996T233 971T154 936L76 1059Q120 1083 177 1101T298 1132T426 1151T551 1157Q669 1157 755 1145T896 1102T979 1019T1006 889Q1006 832 998 789T972 715T924 662T850 625Q910 610 946 585T1003 522T1029 435T1036 319Q1036 216 1007 150T917 44T765 -10T549 -25Z"/><glyph unicode="и" horiz-adv-x="1282" d="M156 1130H307V254L954 1130H1126V0H975V913L299 0H156V1130Z"/><glyph unicode="й" horiz-adv-x="1282" d="M156 1130H307V254L954 1130H1126V0H975V913L299 0H156V1130ZM639 1229Q538 1229 470 1253T359 1319T292 1415T256 1532L375 1556Q384 1515 400 1479T446 1416T522 1374T639 1358Q708 1358 754 1373T830 1416T876 1479T903 1556L1024 1534Q1010 1472 986 1417T919 1320T807 1254T639 1229Z"/><glyph unicode="к" horiz-adv-x="1110" d="M156 1130H309V508L856 1130H1026L618 657L1069 0H897L516 545L309 308V0H156V1130Z"/><glyph unicode="л" horiz-adv-x="1393" d="M92 137H141Q184 137 210 145T249 170T267 216T272 287V1130H1237V0H1081V991H426V270Q426 198 415 147T377 62T305 14T190 -2Q182 -2 166 -1L135 0Q120 0 108 0T92 2V137Z"/><glyph unicode="м" horiz-adv-x="1499" d="M156 1130H350L766 203L1182 1130H1372V0H1219V885L823 0H694L301 885V0H156V1130Z"/><glyph unicode="н" horiz-adv-x="1280" d="M156 1130H311V662H967V1130H1122V0H967V514H311V0H156V1130Z"/><glyph unicode="о" horiz-adv-x="1292" d="M645 -23Q498 -23 395 14T226 126T130 310T100 567Q100 713 130 823T225 1008T394 1119T645 1157Q792 1157 895 1120T1065 1008T1161 824T1192 567Q1192 421 1162 311T1065 126T896 15T645 -23ZM645 119Q752 119 826 147T946 232T1013 372T1034 563Q1034 672 1014 755T947 895T826 981T645 1010Q538 1010 464 981T344 896T277 756T256 563Q256 455 276 372T343 233T464 148T645 119Z"/><glyph unicode="п" horiz-adv-x="1278" d="M156 1130H1120V0H967V991H309V0H156V1130Z"/><glyph unicode="р" horiz-adv-x="1325" d="M156 1122L279 1130L293 995Q316 1036 352 1066T443 1117T570 1147T741 1157Q882 1157 975 1115T1124 996T1202 810T1225 567Q1225 435 1202 327T1123 143T973 24T735 -18Q643 -18 574 -9T453 18T368 65T311 133V-338H156V1122ZM711 123Q815 123 884 153T993 239T1050 377T1067 563Q1067 667 1051 750T995 890T886 979T711 1010Q604 1010 528 988T404 913T334 775T311 563Q311 438 333 354T403 218T527 145T711 123Z"/><glyph unicode="с" horiz-adv-x="1153" d="M641 -20Q483 -20 379 21T212 139T125 324T100 567Q100 702 125 811T212 997T380 1115T645 1157Q721 1157 783 1144T894 1109T983 1058T1053 995L940 889Q919 910 892 931T829 969T748 997T645 1008Q534 1008 459 979T339 892T275 752T256 563Q256 459 274 377T337 237T457 150T645 119Q693 119 734 126T812 149T882 186T948 238L1053 139Q1011 101 968 71T875 21T769 -9T641 -20Z"/><glyph unicode="т" horiz-adv-x="1110" d="M477 989H49V1130H1061V989H633V0H477V989Z"/><glyph unicode="у" horiz-adv-x="1085" d="M23 1130H186L547 191L903 1130H1063L575 -113Q552 -173 525 -216T460 -288T373 -329T258 -342H210Q195 -342 181 -342T160 -340V-213H248Q287 -213 315 -207T363 -188T398 -152T424 -96L464 8L23 1130Z"/><glyph unicode="ф" horiz-adv-x="2177" d="M1014 135Q986 94 949 65T860 17T741 -11T586 -20Q445 -20 351 22T202 142T123 328T100 571Q100 703 123 811T203 996T353 1115T590 1157Q682 1157 751 1148T872 1121T957 1074T1014 1006V1589H1161V1004Q1207 1083 1310 1120T1593 1157Q1734 1157 1827 1115T1975 996T2052 810T2075 567Q2075 435 2053 327T1974 143T1824 24T1587 -18Q1495 -18 1426 -9T1305 18T1219 65T1161 133V-338H1014V135ZM614 123Q721 123 797 146T921 221T991 359T1014 571Q1014 695 993 779T923 915T799 988T614 1010Q509 1010 440 980T331 894T274 756T258 571Q258 467 274 384T330 243T440 154T614 123ZM1563 123Q1667 123 1736 153T1845 239T1902 377T1919 563Q1919 667 1903 750T1846 890T1737 979T1563 1010Q1456 1010 1380 988T1255 913T1184 775T1161 563Q1161 438 1183 354T1253 218T1378 145T1563 123Z"/><glyph unicode="х" horiz-adv-x="1108" d="M78 1130H248L559 700L864 1130H1032L640 588L1067 0H893L547 479L209 0H41L467 591L78 1130Z"/><glyph unicode="ц" horiz-adv-x="1391" d="M1151 0H156V1130H311V135H967V1130H1120V137H1300V-340H1151V0Z"/><glyph unicode="ч" horiz-adv-x="1268" d="M956 436Q940 406 908 380T826 333T706 301T541 289Q404 289 321 322T193 417T134 565T119 756V1130H272V782Q272 707 282 645T324 537T419 467T586 442Q699 442 771 469T884 546T940 663T956 811V1130H1110V0H956V436Z"/><glyph unicode="ш" horiz-adv-x="2040" d="M156 1130H311V135H944V1130H1098V135H1731V1130H1882V0H156V1130Z"/><glyph unicode="щ" horiz-adv-x="2152" d="M1915 0H156V1130H311V135H944V1130H1098V135H1731V1130H1882V137H2060V-340H1915V0Z"/><glyph unicode="ъ" horiz-adv-x="1360" d="M270 989H92V1130H424V778H862Q1061 778 1158 683T1255 397Q1255 208 1158 104T860 0H270V989ZM840 131Q967 131 1032 192T1098 391Q1098 460 1082 508T1032 587T950 631T836 645H424V131H840Z"/><glyph unicode="ы" horiz-adv-x="1585" d="M156 1130H309V778H748Q947 778 1044 683T1141 397Q1141 208 1044 104T745 0H156V1130ZM727 131Q852 131 918 192T985 391Q985 529 919 587T723 645H309V131H727ZM1272 1130H1427V0H1272V1130Z"/><glyph unicode="ь" horiz-adv-x="1247" d="M156 1130H309V780H748Q947 780 1044 684T1141 397Q1141 208 1044 104T745 0H156V1130ZM727 131Q852 131 918 192T985 391Q985 529 919 587T723 645H309V131H727Z"/><glyph unicode="э" horiz-adv-x="1153" d="M229 508V647H896Q891 710 880 762Q861 847 816 903T695 986T508 1014Q452 1014 407 1003T324 973T259 933T209 889L102 995Q132 1028 171 1057T260 1109T372 1144T512 1157Q670 1157 774 1117T941 1000T1028 815T1053 567Q1053 428 1028 319T941 135T775 20T514 -20Q443 -20 385 -10T278 21T186 71T100 139L197 238Q263 179 337 149T508 119Q622 119 697 146T817 228T880 366Q894 429 898 508H229Z"/><glyph unicode="ю" horiz-adv-x="1688" d="M156 1130H311V657H505Q511 750 531 825Q560 936 624 1009T791 1120T1040 1157Q1186 1157 1289 1120T1458 1010T1554 826T1585 567Q1585 420 1555 309T1459 125T1290 14T1040 -23Q893 -23 791 14T625 124T531 309Q507 400 503 516H311V0H156V1130ZM1040 119Q1147 119 1221 146T1341 229T1409 367T1430 563Q1430 676 1409 760T1342 899T1221 982T1040 1010Q933 1010 859 983T739 900T673 760T653 563Q653 451 673 368T739 229T859 147T1040 119Z"/><glyph unicode="я" horiz-adv-x="1272" d="M961 426H543L295 0H129L383 436Q360 440 339 446Q266 466 216 509T139 618T113 778Q113 961 214 1045T508 1130H1116V0H961V426ZM961 559V991H512Q453 991 408 981T333 946T286 880T270 774Q270 711 286 670T332 604T406 569T508 559H961Z"/><glyph unicode="ё" horiz-adv-x="1214" d="M317 1462H461V1253H317V1462ZM750 1462H891V1253H750V1462ZM643 -23Q529 -23 445 -2T300 57T201 148T140 267T109 409T100 567Q100 690 122 797T204 985T368 1111T637 1157Q751 1157 830 1133T961 1064T1042 960T1084 828T1100 676T1102 514H250Q253 444 264 382Q278 300 320 240T440 147T643 113Q713 113 766 121T861 145T939 182T1008 227L1092 119Q1050 87 1004 61T903 16T785 -13T643 -23ZM954 655Q951 705 947 751T932 838T901 912T846 968T759 1005T633 1018Q511 1018 436 985T320 891T264 746Q257 703 253 655H954Z"/><glyph unicode="ђ" horiz-adv-x="1284" d="M817 -213H831Q878 -212 907 -204T952 -177T974 -127T981 -49V662Q981 737 974 800T936 908T847 978T682 1004Q569 1004 500 976T392 899T340 781T326 633V0H170V1272H-12V1413H170V1589H326V1413H621V1272H326V1018Q342 1046 371 1071T449 1116T565 1146T727 1157Q864 1157 945 1123T1068 1027T1122 879T1135 688V-66Q1135 -143 1122 -195T1076 -280T987 -327T846 -342H817V-213Z"/><glyph unicode="ѓ" horiz-adv-x="1032" d="M927 1569H1117L765 1249H617L927 1569ZM156 1130H983V989H311V0H156V1130Z"/><glyph unicode="є" horiz-adv-x="1153" d="M641 -20Q483 -20 379 19T212 134T125 319T100 567Q100 705 125 814T212 1000T380 1116T645 1157Q721 1157 783 1144T895 1109T984 1058T1053 995L946 889Q925 910 897 932T832 973T749 1002T645 1014Q534 1014 459 987T339 903T273 762Q261 710 256 647H924V508H255Q259 429 273 366Q292 283 337 228T457 146T645 119Q742 119 815 149T954 238L1053 139Q1011 101 968 71T875 21T769 -9T641 -20Z"/><glyph unicode="ѕ" horiz-adv-x="1069" d="M532 -20Q476 -20 417 -15T298 5T179 44T61 106L143 227Q193 195 244 174T347 139T447 121T541 115Q617 115 673 123T767 154T822 215T840 313Q840 361 824 391T772 442T679 477T541 508Q443 527 364 548T230 606T145 699T115 848Q115 921 137 978T211 1075T343 1136T541 1157Q669 1157 772 1131T954 1059L881 932Q816 967 731 990T543 1014Q463 1014 410 1003T326 970T281 917T268 848Q268 801 284 770T334 718T421 683T549 653Q652 632 733 612T872 556T959 466T989 319Q989 222 962 157T878 53T736 -3T532 -20Z"/><glyph unicode="і" horiz-adv-x="487" d="M166 1130H319V0H166V1130ZM166 1501H322V1280H166V1501Z"/><glyph unicode="ї" horiz-adv-x="487" d="M-14 1487H117V1278H-14V1487ZM371 1487H502V1278H371V1487ZM166 1130H319V0H166V1130Z"/><glyph unicode="ј" horiz-adv-x="487" d="M4 -213H16Q64 -212 93 -204T139 -175T160 -122T166 -37V1130H319V-37Q319 -123 308 -181T264 -275T176 -326T31 -342H4V-213ZM166 1501H322V1280H166V1501Z"/><glyph unicode="љ" horiz-adv-x="2154" d="M92 137H141Q184 137 210 145T249 170T267 216T272 287V1130H1225V778H1657Q1856 778 1953 683T2050 397Q2050 208 1952 104T1655 0H1073V991H426V270Q426 198 415 147T377 62T305 14T190 -2Q182 -2 166 -1L135 0Q120 0 108 0T92 2V137ZM1636 131Q1761 131 1826 192T1892 391Q1892 460 1876 508T1826 587T1744 631T1630 645H1225V131H1636Z"/><glyph unicode="њ" horiz-adv-x="2040" d="M156 1130H311V662H961V1130H1112V778H1544Q1742 778 1838 683T1935 397Q1935 208 1838 104T1542 0H961V514H311V0H156V1130ZM1522 131Q1647 131 1712 192T1778 391Q1778 529 1713 587T1518 645H1112V131H1522Z"/><glyph unicode="ћ" horiz-adv-x="1284" d="M-12 1413H170V1589H326V1413H621V1272H326V1018Q342 1046 371 1071T449 1116T565 1146T727 1157Q864 1157 945 1123T1068 1027T1122 879T1135 688V0H981V662Q981 737 974 800T936 908T847 978T682 1004Q569 1004 500 976T392 899T340 781T326 633V0H170V1272H-12V1413Z"/><glyph unicode="ќ" horiz-adv-x="1110" d="M964 1569H1154L802 1249H654L964 1569ZM156 1130H309V508L856 1130H1026L618 657L1069 0H897L516 545L309 308V0H156V1130Z"/><glyph unicode="ў" horiz-adv-x="1085" d="M23 1130H186L547 191L903 1130H1063L575 -113Q552 -173 525 -216T460 -288T373 -329T258 -342H210Q195 -342 181 -342T160 -340V-213H248Q287 -213 315 -207T363 -188T398 -152T424 -96L464 8L23 1130ZM802 1229Q701 1229 633 1253T522 1319T455 1415T419 1532L538 1556Q547 1515 563 1479T609 1416T685 1374T802 1358Q871 1358 917 1373T993 1416T1039 1479T1066 1556L1187 1534Q1173 1472 1149 1417T1082 1320T970 1254T802 1229Z"/><glyph unicode="џ" horiz-adv-x="1278" d="M565 0H156V1130H311V135H967V1130H1120V0H713V-340H565V0Z"/><glyph unicode="Ґ" horiz-adv-x="1204" d="M178 1518H987V1858H1147V1364H340V0H178V1518Z"/><glyph unicode="ґ" horiz-adv-x="1032" d="M156 1130H836V1468H983V989H311V0H156V1130Z"/><glyph unicode="–" horiz-adv-x="1436" d="M106 702H1329V557H106V702Z"/><glyph unicode="—" horiz-adv-x="1886" d="M106 702H1782V557H106V702Z"/><glyph unicode="‘" horiz-adv-x="489" d="M141 1217Q141 1281 148 1327T175 1408T227 1470T313 1524L358 1440Q324 1422 303 1405T269 1369T251 1326T246 1270H346V1036H141V1217Z"/><glyph unicode="’" horiz-adv-x="489" d="M131 1114Q165 1132 186 1148T221 1184T239 1226T244 1282H141V1518H346V1339Q346 1274 339 1228T313 1146T261 1083T176 1030L131 1114Z"/><glyph unicode="‚" horiz-adv-x="489" d="M131 -135Q165 -117 186 -101T221 -65T239 -22T244 35H141V268H346V88Q346 27 339 -18T313 -100T261 -164T176 -219L131 -135Z"/><glyph unicode="“" horiz-adv-x="856" d="M141 1214Q141 1277 148 1322T175 1402T227 1464T311 1518L356 1434Q322 1416 301 1400T267 1366T249 1324T244 1268H344V1038H141V1214ZM514 1214Q514 1277 521 1322T546 1402T598 1464T682 1518L727 1434Q693 1416 671 1400T637 1366T619 1324T614 1268H715V1038H514V1214Z"/><glyph unicode="”" horiz-adv-x="856" d="M131 1120Q164 1138 186 1154T220 1189T238 1231T244 1288H141V1518H344V1341Q344 1277 337 1232T311 1152T259 1091T174 1038L131 1120ZM500 1120Q534 1138 556 1154T591 1189T609 1231T614 1288H514V1518H715V1341Q715 1277 708 1232T681 1152T629 1091T545 1038L500 1120Z"/><glyph unicode="„" horiz-adv-x="856" d="M131 -133Q164 -115 186 -99T220 -65T238 -22T244 35H141V264H344V88Q344 27 337 -18T311 -99T259 -162T174 -215L131 -133ZM500 -133Q534 -115 556 -99T591 -65T609 -22T614 35H514V264H715V88Q715 27 708 -18T681 -99T629 -162T545 -215L500 -133Z"/><glyph unicode="†" horiz-adv-x="1108" d="M477 969H119V1114H477V1589H631V1114H989V969H631V-340H477V969Z"/><glyph unicode="‡" horiz-adv-x="1108" d="M477 188H119V336H477V969H119V1114H477V1589H631V1114H989V969H631V336H989V188H631V-340H477V188Z"/><glyph unicode="•" horiz-adv-x="700" d="M205 784H496V461H205V784Z"/><glyph unicode="…" horiz-adv-x="1399" d="M141 227H346V0H141V227ZM596 227H801V0H596V227ZM1053 227H1257V0H1053V227Z"/><glyph unicode="‰" horiz-adv-x="3176" d="M500 582Q389 582 312 617T185 715T113 867T90 1061Q90 1166 112 1254T184 1406T311 1506T500 1542Q608 1542 685 1506T810 1407T882 1255T905 1061Q905 955 882 867T811 716T685 617T500 582ZM500 709Q575 709 625 735T707 809T751 921T764 1061Q764 1136 751 1200T707 1311T626 1384T500 1411Q424 1411 373 1385T290 1313T246 1202T233 1061Q233 986 246 922T289 810T371 736T500 709ZM1772 -20Q1663 -20 1586 15T1460 113T1389 265T1366 459Q1366 564 1388 652T1460 804T1586 904T1772 940Q1881 940 1958 904T2084 805T2156 653T2179 459Q2179 353 2156 265T2084 114T1958 15T1772 -20ZM1772 106Q1848 106 1898 133T1979 207T2023 319T2036 459Q2036 533 2023 597T1980 708T1899 782T1772 809Q1697 809 1646 783T1564 709T1520 598T1507 459Q1507 384 1520 319T1564 207T1646 133T1772 106ZM2681 -20Q2571 -20 2494 15T2367 113T2296 265T2273 459Q2273 564 2295 652T2367 804T2493 904T2681 940Q2790 940 2867 904T2992 805T3063 653T3086 459Q3086 353 3064 265T2993 114T2867 15T2681 -20ZM2681 106Q2757 106 2808 133T2889 207T2932 319T2945 459Q2945 533 2932 597T2889 708T2807 782T2681 809Q2606 809 2555 783T2473 709T2429 598T2415 459Q2415 384 2428 319T2472 207T2554 133T2681 106ZM1483 1520H1630L784 0H637L1483 1520Z"/><glyph unicode="‹" horiz-adv-x="866" d="M182 563L492 1130H633L334 563L633 0H492L182 563Z"/><glyph unicode="›" horiz-adv-x="866" d="M532 565L231 1130H375L684 565L375 0H231L532 565Z"/><glyph unicode="⁄" horiz-adv-x="0"/><glyph unicode="€" horiz-adv-x="1358" d="M80 682H306Q305 722 305 764Q305 810 306 854H80V991H317Q323 1044 333 1093Q361 1238 425 1338T596 1490T858 1542Q922 1542 973 1537T1068 1523T1148 1498T1223 1464L1151 1331Q1091 1363 1023 1380T860 1397Q736 1397 658 1353T534 1226T472 1028Q469 1010 467 991H1006V854H456Q455 812 455 768Q455 723 456 682H1006V545H465Q468 518 472 492Q489 372 534 289T657 163T858 119Q900 119 938 122T1012 133T1083 155T1153 190L1231 68Q1190 42 1149 25T1062 -4T965 -20T852 -25Q693 -25 588 28T420 183T331 431Q321 485 315 545H80V682Z"/><glyph unicode="№" horiz-adv-x="2718" d="M178 1518H354L1266 274V1518H1417V0H1270L330 1282V0H178V1518ZM2073 590Q1850 590 1742 711T1634 1067Q1634 1302 1742 1422T2073 1542Q2295 1542 2404 1423T2513 1067Q2513 832 2403 711T2073 590ZM2073 711Q2228 711 2304 801T2380 1065Q2380 1238 2304 1326T2073 1415Q1917 1415 1842 1327T1767 1065Q1767 891 1842 801T2073 711ZM1690 428H2458V305H1690V428Z"/><glyph unicode="™" horiz-adv-x="2222" d="M997 1518H1135L1456 752L1778 1518H1917V590H1796V1300L1499 590H1411L1112 1300V590H997V1518ZM455 1403H133V1518H899V1403H575V590H455V1403Z"/><glyph unicode="Ω" horiz-adv-x="0"/><glyph unicode="∂" horiz-adv-x="0"/><glyph unicode="∆" horiz-adv-x="0"/><glyph unicode="∏" horiz-adv-x="0"/><glyph unicode="∑" horiz-adv-x="0"/><glyph unicode="−" horiz-adv-x="0"/><glyph unicode="∕" horiz-adv-x="0"/><glyph unicode="∙" horiz-adv-x="489" d="M141 793H346V561H141V793Z"/><glyph unicode="√" horiz-adv-x="0"/><glyph unicode="∞" horiz-adv-x="0"/><glyph unicode="∫" horiz-adv-x="0"/><glyph unicode="≈" horiz-adv-x="0"/><glyph unicode="≠" horiz-adv-x="0"/><glyph unicode="≤" horiz-adv-x="0"/><glyph unicode="≥" horiz-adv-x="0"/><glyph unicode="◊" horiz-adv-x="0"/><glyph unicode="" horiz-adv-x="0"/><glyph unicode="ﬀ" horiz-adv-x="1436" d="M926 989H430V0H276V989H63V1130H276V1235Q276 1313 291 1378T344 1490T447 1563T612 1589H735V1452H629Q569 1452 531 1436T470 1390T439 1322T430 1235V1130H926V1235Q926 1313 941 1378T994 1490T1097 1563T1262 1589H1386V1452H1278Q1219 1452 1181 1436T1120 1390T1090 1322T1081 1235V1130H1386V989H1081V0H926V989Z"/><glyph unicode="ﬁ" horiz-adv-x="1247" d="M63 1130H276V1235Q276 1313 291 1378T344 1490T447 1563T612 1589H735V1452H629Q569 1452 531 1436T470 1390T439 1322T430 1235V1130H735V989H430V0H276V989H63V1130ZM926 1130H1081V0H926V1130ZM926 1501H1081V1280H926V1501Z"/><glyph unicode="ﬂ" horiz-adv-x="1358" d="M63 1130H276V1249Q276 1327 291 1392T344 1505T447 1578T612 1604H735V1466H629Q569 1466 531 1450T470 1404T439 1336T430 1249V1130H735V989H430V0H276V989H63V1130ZM1161 -2Q1092 -2 1047 13T975 62T937 146T926 270V1589H1081V287Q1081 245 1085 217T1102 171T1141 145T1210 137H1260V2Q1247 0 1221 -1T1161 -2Z"/><glyph unicode="ﬃ" horiz-adv-x="1896" d="M926 989H430V0H276V989H63V1130H276V1235Q276 1313 291 1378T344 1490T447 1563T612 1589H735V1452H629Q569 1452 531 1436T470 1390T439 1322T430 1235V1130H926V1235Q926 1313 941 1378T994 1490T1097 1563T1262 1589H1386V1452H1278Q1219 1452 1181 1436T1120 1390T1090 1322T1081 1235V1130H1386V989H1081V0H926V989ZM1577 1130H1731V0H1577V1130ZM1575 1501H1733V1280H1575V1501Z"/><glyph unicode="ﬄ" horiz-adv-x="2009" d="M926 989H430V0H276V989H63V1130H276V1235Q276 1313 291 1378T344 1490T447 1563T612 1589H735V1452H629Q569 1452 531 1436T470 1390T439 1322T430 1235V1130H926V1235Q926 1313 941 1378T994 1490T1097 1563T1262 1589H1386V1452H1278Q1219 1452 1181 1436T1120 1390T1090 1322T1081 1235V1130H1386V989H1081V0H926V989ZM1810 -2Q1742 -2 1697 13T1626 62T1588 146T1577 270V1589H1731V287Q1731 245 1735 217T1752 171T1791 145T1860 137H1909V2Q1898 0 1870 -1T1810 -2Z"/></font>
</defs>
</svg>
